<svg xmlns="http://www.w3.org/2000/svg" xmlns:xlink="http://www.w3.org/1999/xlink" zoomAndPan="magnify" viewBox="0 0 375 299.999988" preserveAspectRatio="xMidYMid meet" version="1.0"><defs><clipPath id="0050fcf610"><path d="M 225 68 L 309 68 L 309 126 L 225 126 Z M 225 68 " clip-rule="nonzero"/></clipPath><clipPath id="61b965cf82"><path d="M 225.683594 55.390625 L 326.121094 76.761719 L 313.339844 136.828125 L 212.898438 115.457031 Z M 225.683594 55.390625 " clip-rule="nonzero"/></clipPath><clipPath id="764444da0b"><path d="M 189.613281 8.109375 L 380.648438 48.761719 L 339.996094 239.796875 L 148.960938 199.144531 Z M 189.613281 8.109375 " clip-rule="nonzero"/></clipPath><clipPath id="41374e49fb"><path d="M 249 83 L 284 83 L 284 112 L 249 112 Z M 249 83 " clip-rule="nonzero"/></clipPath><clipPath id="b383fe553f"><path d="M 253.460938 77.523438 L 283.988281 84.019531 L 277.492188 114.542969 L 246.964844 108.046875 Z M 253.460938 77.523438 " clip-rule="nonzero"/></clipPath><clipPath id="ac900a5476"><path d="M 253.460938 77.523438 L 283.988281 84.019531 L 277.492188 114.542969 L 246.964844 108.046875 Z M 253.460938 77.523438 " clip-rule="nonzero"/></clipPath><clipPath id="e61e551cac"><path d="M 159 110 L 244 110 L 244 166 L 159 166 Z M 159 110 " clip-rule="nonzero"/></clipPath><clipPath id="2dd17e0839"><path d="M 155.609375 102.15625 L 257.800781 112.238281 L 251.773438 173.351562 L 149.582031 163.273438 Z M 155.609375 102.15625 " clip-rule="nonzero"/></clipPath><clipPath id="d2895f38be"><path d="M 114.507812 59.179688 L 308.878906 78.351562 L 289.703125 272.71875 L 95.335938 253.546875 Z M 114.507812 59.179688 " clip-rule="nonzero"/></clipPath><clipPath id="73974a0ca4"><path d="M 180 125 L 221 125 L 221 156 L 180 156 Z M 180 125 " clip-rule="nonzero"/></clipPath><clipPath id="23950a2273"><path d="M 183.121094 120.492188 L 221.152344 124.644531 L 217.4375 158.671875 L 179.40625 154.519531 Z M 183.121094 120.492188 " clip-rule="nonzero"/></clipPath><clipPath id="5d46ab70e3"><path d="M 221.558594 124.6875 L 183.53125 120.535156 L 179.8125 154.5625 L 217.84375 158.714844 Z M 221.558594 124.6875 " clip-rule="nonzero"/></clipPath><clipPath id="b495cc00fd"><path d="M 110 56 L 194 56 L 194 115 L 110 115 Z M 110 56 " clip-rule="nonzero"/></clipPath><clipPath id="07a515e362"><path d="M 97.363281 63.121094 L 198.832031 47.335938 L 208.269531 108.015625 L 106.800781 123.800781 Z M 97.363281 63.121094 " clip-rule="nonzero"/></clipPath><clipPath id="0fac275a03"><path d="M 46.859375 31.800781 L 239.851562 1.777344 L 269.875 194.769531 L 76.882812 224.792969 Z M 46.859375 31.800781 " clip-rule="nonzero"/></clipPath><clipPath id="06922ead30"><path d="M 125 75 L 178 75 L 178 107 L 125 107 Z M 125 75 " clip-rule="nonzero"/></clipPath><clipPath id="8201c2d362"><path d="M 123.960938 82.109375 L 175.675781 73.96875 L 179.746094 99.828125 L 128.03125 107.96875 Z M 123.960938 82.109375 " clip-rule="nonzero"/></clipPath><clipPath id="3666516bfa"><path d="M 125.988281 95 C 127.109375 102.117188 133.789062 106.980469 140.90625 105.859375 L 166.683594 101.800781 C 173.800781 100.679688 178.664062 94 177.542969 86.882812 C 176.421875 79.765625 169.742188 74.902344 162.625 76.023438 L 136.847656 80.082031 C 129.730469 81.203125 124.867188 87.882812 125.988281 95 Z M 125.988281 95 " clip-rule="nonzero"/></clipPath><clipPath id="7a5662b396"><path d="M 123.960938 82.109375 L 175.675781 73.96875 L 179.746094 99.828125 L 128.03125 107.96875 Z M 123.960938 82.109375 " clip-rule="nonzero"/></clipPath><clipPath id="dc011f83f0"><path d="M 52.332031 36.3125 L 235.324219 7.503906 L 264.132812 190.496094 L 81.140625 219.304688 Z M 52.332031 36.3125 " clip-rule="nonzero"/></clipPath><clipPath id="5d38377912"><path d="M 125 76 L 178 76 L 178 105 L 125 105 Z M 125 76 " clip-rule="nonzero"/></clipPath><clipPath id="2f0e5ec98b"><path d="M 123.960938 82.109375 L 175.675781 73.96875 L 179.746094 99.828125 L 128.03125 107.96875 Z M 123.960938 82.109375 " clip-rule="nonzero"/></clipPath><clipPath id="debdb13def"><path d="M 125.988281 95 C 127.109375 102.117188 133.789062 106.980469 140.90625 105.859375 L 166.683594 101.800781 C 173.800781 100.679688 178.664062 94 177.542969 86.882812 C 176.421875 79.765625 169.742188 74.902344 162.625 76.023438 L 136.847656 80.082031 C 129.730469 81.203125 124.867188 87.882812 125.988281 95 Z M 125.988281 95 " clip-rule="nonzero"/></clipPath><clipPath id="855e404d9e"><path d="M 123.960938 82.109375 L 175.675781 73.96875 L 179.746094 99.828125 L 128.03125 107.96875 Z M 123.960938 82.109375 " clip-rule="nonzero"/></clipPath><clipPath id="c85f69d3a6"><path d="M 52.332031 36.3125 L 235.324219 7.503906 L 264.132812 190.496094 L 81.140625 219.304688 Z M 52.332031 36.3125 " clip-rule="nonzero"/></clipPath></defs><path fill="#231f20" d="M 207.570312 298.003906 L 122.300781 298.003906 L 2.925781 226.203125 L 92.375 178.679688 Z M 207.570312 298.003906 " fill-opacity="0.2" fill-rule="nonzero"/><path fill="#947455" d="M 92.375 117.332031 L 92.375 224.183594 L 207.570312 298.003906 L 207.570312 187.910156 Z M 92.375 117.332031 " fill-opacity="1" fill-rule="nonzero"/><path fill="#ffffff" d="M 92.375 117.332031 L 203.382812 195.164062 L 207.570312 298.003906 L 207.570312 187.910156 Z M 92.375 117.332031 " fill-opacity="0.22" fill-rule="nonzero"/><path fill="#231f20" d="M 92.375 117.332031 L 92.375 143.109375 L 207.570312 216.929688 L 207.570312 187.910156 Z M 92.375 117.332031 " fill-opacity="0.2" fill-rule="nonzero"/><path fill="#b39069" d="M 207.570312 298.003906 L 207.570312 187.910156 L 328.21875 114.089844 L 328.21875 224.183594 Z M 207.570312 298.003906 " fill-opacity="1" fill-rule="nonzero"/><path fill="#231f20" d="M 207.570312 216.929688 L 207.570312 187.910156 L 328.21875 114.089844 L 328.21875 143.109375 Z M 207.570312 216.929688 " fill-opacity="0.2" fill-rule="nonzero"/><path fill="#ffffff" d="M 207.570312 298.003906 L 207.570312 187.910156 L 328.21875 114.089844 L 214.242188 195.164062 Z M 207.570312 298.003906 " fill-opacity="0.22" fill-rule="nonzero"/><path fill="#b5926b" d="M 207.570312 187.910156 L 92.375 117.332031 L 210.296875 46.953125 Z M 207.570312 187.910156 " fill-opacity="1" fill-rule="nonzero"/><path fill="#dab78d" d="M 92.375 117.332031 L 51.671875 72.375 L 169.589844 1.996094 L 210.90625 46.730469 Z M 92.375 117.332031 " fill-opacity="1" fill-rule="nonzero"/><path fill="#dab78d" d="M 92.375 117.332031 L 51.671875 162.292969 L 163.714844 235.203125 L 207.570312 188.035156 Z M 92.375 117.332031 " fill-opacity="1" fill-rule="nonzero"/><path fill="#dab78d" d="M 251.613281 1.996094 L 210.90625 46.953125 L 328.21875 114.089844 L 372.074219 66.921875 Z M 251.613281 1.996094 " fill-opacity="1" fill-rule="nonzero"/><path fill="#dab78d" d="M 254.058594 196.851562 L 207.570312 188.042969 L 328.21875 114.089844 L 372.074219 121.441406 Z M 254.058594 196.851562 " fill-opacity="1" fill-rule="nonzero"/><path fill="#967657" d="M 207.570312 187.910156 L 210.296875 46.953125 L 328.21875 114.089844 Z M 207.570312 187.910156 " fill-opacity="1" fill-rule="nonzero"/><path fill="#443320" d="M 189.832031 271.773438 L 190.199219 272.226562 L 190.210938 271.8125 C 190.246094 270.671875 190.449219 269.746094 190.832031 268.972656 C 191.171875 268.292969 191.542969 267.859375 192.011719 267.601562 C 192.195312 267.503906 192.398438 267.429688 192.609375 267.386719 L 193.210938 267.261719 L 192.421875 266.832031 C 192.203125 266.714844 191.976562 266.601562 191.753906 266.503906 C 188.765625 265.203125 186.378906 266.492188 186.429688 269.375 L 186.4375 269.804688 L 186.808594 269.824219 C 187.972656 269.886719 188.652344 270.324219 189.832031 271.773438 Z M 189.832031 271.773438 " fill-opacity="1" fill-rule="nonzero"/><path fill="#443320" d="M 195.128906 268.570312 L 194.460938 268.105469 L 194.9375 268.867188 C 196.332031 271.105469 197.03125 273.3125 197.203125 276.019531 L 197.234375 276.480469 L 197.601562 276.457031 C 198.574219 276.394531 199.476562 276.964844 200.445312 278.25 L 200.84375 278.78125 L 200.84375 278.300781 C 200.832031 275.222656 198.160156 270.675781 195.128906 268.570312 Z M 195.128906 268.570312 " fill-opacity="1" fill-rule="nonzero"/><path fill="#443320" d="M 196.78125 276.152344 L 196.8125 275.835938 C 196.890625 275.019531 196.570312 273.203125 196.097656 271.78125 C 195.949219 271.332031 195.765625 270.808594 195.515625 270.253906 C 195.269531 269.699219 194.960938 269.105469 194.5625 268.515625 C 194.226562 268.019531 193.90625 267.691406 193.582031 267.511719 C 193.3125 267.363281 193.042969 267.316406 192.761719 267.371094 C 192.660156 267.394531 192.5625 267.425781 192.457031 267.46875 C 192.355469 267.515625 192.25 267.574219 192.132812 267.652344 C 191.714844 267.929688 191.382812 268.347656 191.082031 268.972656 C 190.71875 269.734375 190.523438 270.660156 190.488281 271.804688 L 190.476562 272.183594 L 190.839844 272.261719 C 191.410156 272.382812 191.992188 272.578125 192.5625 272.84375 C 192.90625 273.003906 193.257812 273.195312 193.601562 273.414062 C 194.546875 274 195.507812 274.8125 196.460938 275.816406 Z M 196.78125 276.152344 " fill-opacity="1" fill-rule="nonzero"/><path fill="#443320" d="M 193.773438 273.871094 L 193.683594 273.8125 C 193.183594 273.496094 192.871094 273.667969 192.871094 274.261719 L 192.875 281.292969 C 192.890625 281.492188 192.800781 281.539062 192.609375 281.445312 C 192.410156 281.339844 192.164062 281.085938 192.128906 280.859375 C 192.117188 280.769531 192.101562 280.699219 192.089844 280.632812 C 192.058594 280.46875 192.027344 280.316406 192.011719 279.886719 C 191.992188 279.300781 191.625 278.664062 191.121094 278.34375 C 190.859375 278.179688 190.613281 278.125 190.429688 278.191406 C 190.242188 278.253906 190.140625 278.433594 190.144531 278.691406 L 190.144531 279.363281 C 190.140625 279.382812 190.140625 279.410156 190.144531 279.449219 C 190.234375 281.023438 191.109375 282.375 192.738281 283.46875 C 192.785156 283.496094 192.824219 283.523438 192.867188 283.550781 C 193.503906 283.953125 193.992188 284.089844 194.324219 283.953125 C 194.765625 283.773438 194.757812 283.167969 194.75 283.019531 L 194.753906 275.457031 C 194.753906 274.921875 194.3125 274.210938 193.773438 273.871094 Z M 193.773438 273.871094 " fill-opacity="1" fill-rule="nonzero"/><path fill="#443320" d="M 195.277344 267.664062 C 195.367188 267.789062 195.457031 267.902344 195.542969 268 C 195.710938 268.195312 195.855469 268.316406 195.980469 268.394531 C 196.128906 268.492188 196.246094 268.519531 196.332031 268.515625 C 196.910156 268.507812 196.832031 267.152344 196.808594 266.882812 L 196.753906 266.207031 L 196.359375 266.46875 C 195.96875 266.722656 195.613281 266.550781 195.605469 266.546875 L 195.546875 266.523438 C 195.53125 266.515625 195.515625 266.515625 195.492188 266.507812 C 195.128906 266.417969 195.011719 266.5625 194.976562 266.695312 C 194.894531 267.019531 195.214844 267.558594 195.25 267.621094 Z M 195.277344 267.664062 " fill-opacity="1" fill-rule="nonzero"/><path fill="#443320" d="M 200.023438 271.070312 L 199.953125 271.660156 C 199.894531 272.109375 199.691406 272.148438 199.6875 272.148438 L 199.644531 272.164062 C 199.632812 272.167969 199.625 272.175781 199.613281 272.183594 C 199.410156 272.3125 199.421875 272.53125 199.46875 272.695312 C 199.578125 273.082031 199.960938 273.433594 200.007812 273.472656 L 200.042969 273.503906 C 200.109375 273.550781 200.171875 273.597656 200.230469 273.636719 C 200.257812 273.652344 200.28125 273.664062 200.304688 273.679688 C 200.667969 273.890625 200.824219 273.816406 200.894531 273.71875 C 201.148438 273.359375 200.53125 272.085938 200.40625 271.835938 Z M 200.023438 271.070312 " fill-opacity="1" fill-rule="nonzero"/><path fill="#443320" d="M 199.453125 268.039062 L 198.890625 268.011719 C 198.667969 267.996094 196.710938 267.925781 196.835938 269.054688 C 196.890625 269.523438 197.261719 270.085938 197.945312 270.726562 L 197.984375 270.757812 C 198.007812 270.78125 198.101562 270.851562 198.230469 270.933594 C 198.484375 271.09375 198.871094 271.285156 199.117188 271.167969 C 199.34375 271.058594 199.386719 270.726562 199.25 270.179688 L 199.230469 270.113281 C 199.226562 270.105469 198.929688 269.363281 199.257812 268.527344 Z M 199.453125 268.039062 " fill-opacity="1" fill-rule="nonzero"/><path fill="#443320" d="M 140.992188 250.652344 L 157.664062 261.226562 C 158.109375 261.507812 158.519531 261.542969 158.753906 261.320312 C 158.988281 261.097656 159.011719 260.65625 158.8125 260.136719 L 150.433594 238.269531 C 150.21875 237.707031 149.78125 237.160156 149.296875 236.851562 L 149.289062 236.84375 C 148.804688 236.539062 148.371094 236.523438 148.148438 236.804688 C 146.15625 239.347656 141.675781 245.5625 139.839844 248.117188 C 139.648438 248.386719 139.671875 248.855469 139.910156 249.375 C 140.144531 249.894531 140.550781 250.371094 140.992188 250.652344 Z M 149.707031 245.027344 C 149.660156 244.335938 149.835938 243.914062 150.21875 243.78125 C 150.371094 243.730469 150.539062 243.730469 150.695312 243.75 C 150.402344 244.222656 150.546875 245.238281 151.128906 246.644531 C 152.566406 250.132812 152 251.730469 151.792969 252.136719 L 151.394531 252.917969 L 152.203125 252.664062 C 152.480469 252.578125 152.691406 252.371094 152.851562 252.136719 C 152.847656 252.222656 152.839844 252.3125 152.832031 252.40625 C 152.753906 253.394531 151.917969 254.417969 150.558594 254.109375 C 151.042969 253.429688 151.160156 251.894531 150.554688 249.917969 L 149.996094 248.085938 L 150.070312 249.707031 C 150.183594 252.238281 148.820312 253.117188 147.496094 252.480469 C 146.730469 252.109375 146.148438 251.300781 145.90625 250.253906 C 145.410156 248.132812 146.558594 246.859375 147.398438 245.925781 L 147.46875 245.847656 C 147.898438 245.371094 147.949219 244.855469 147.878906 244.429688 C 147.980469 244.578125 148.066406 244.734375 148.132812 244.902344 C 148.484375 245.753906 148.328125 246.648438 148.019531 247.160156 C 147.84375 247.441406 147.761719 247.902344 148.050781 248.332031 C 148.191406 248.542969 148.445312 248.792969 148.878906 248.816406 C 149.613281 248.851562 149.875 247.644531 149.707031 245.027344 Z M 149.707031 245.027344 " fill-opacity="1" fill-rule="nonzero"/><path fill="#443320" d="M 178.019531 261.308594 L 178.019531 256.996094 C 178.019531 255.996094 177.664062 255.078125 176.941406 254.238281 C 174.296875 251.460938 170.121094 249.136719 168.726562 248.796875 C 167.585938 248.515625 167.371094 249.425781 167.414062 249.921875 L 167.449219 254.882812 C 167.449219 257.917969 170.566406 261.3125 171.34375 262.113281 L 171.34375 266.332031 C 170.175781 265.78125 167.359375 264.554688 167.359375 265.597656 C 167.359375 265.800781 167.449219 266.054688 167.628906 266.34375 C 168.496094 267.742188 171.414062 269.945312 172.792969 270.820312 L 172.804688 270.828125 C 174.15625 271.679688 178.019531 273.757812 178.019531 272.152344 C 178.019531 270.871094 175.039062 268.722656 173.976562 268.003906 L 173.976562 263.765625 C 177.953125 265.476562 178.019531 261.351562 178.019531 261.308594 Z M 169.953125 252.632812 C 169.941406 252.625 168.839844 251.769531 168.839844 251.070312 C 168.839844 250.691406 169.363281 250.378906 172.867188 252.503906 C 172.96875 252.566406 173.070312 252.628906 173.167969 252.691406 C 174.949219 253.820312 176.027344 254.921875 176.414062 255.539062 C 176.496094 255.667969 176.59375 255.84375 176.59375 255.96875 C 176.59375 255.984375 176.574219 256.019531 176.496094 256.042969 C 175.976562 256.191406 173.835938 255.433594 171.316406 253.683594 L 171.148438 253.566406 L 169.875 255.3125 L 170.195312 252.820312 Z M 169.953125 252.632812 " fill-opacity="1" fill-rule="nonzero"/><g clip-path="url(#0050fcf610)"><g clip-path="url(#61b965cf82)"><g clip-path="url(#764444da0b)"><path fill="#443320" d="M 279.980469 69.425781 C 275.574219 68.976562 271.253906 69.789062 266.835938 71.886719 L 264.558594 72.980469 L 263.988281 72.546875 C 263.167969 71.925781 260.90625 70.46875 259.992188 70.003906 C 258.890625 69.417969 254.492188 68.480469 252.910156 68.496094 C 250.082031 68.515625 247.433594 69.335938 245.179688 70.882812 C 243.53125 72.03125 242.503906 73.019531 241.71875 74.234375 C 241.257812 74.933594 240.914062 75.269531 240.480469 75.394531 C 237.40625 76.296875 233.882812 78.292969 231.859375 80.296875 C 228.277344 83.859375 226.921875 86.570312 225.902344 92.273438 C 225.210938 96.078125 225.242188 96.84375 226.09375 100.257812 C 227.386719 105.441406 230.101562 109.699219 234.210938 112.992188 C 236.191406 114.578125 237.511719 115.328125 239.941406 116.273438 C 241.523438 116.882812 244.460938 117.546875 262.695312 121.449219 C 285.585938 126.355469 284.40625 126.144531 288.1875 125.761719 C 290.394531 125.550781 293.71875 124.660156 295.660156 123.769531 C 298.851562 122.324219 302.597656 119.167969 304.316406 116.496094 C 306.289062 113.449219 307.597656 109.871094 307.964844 106.503906 C 308.257812 103.933594 308.203125 102.542969 307.765625 100.382812 C 306.816406 95.605469 304.503906 91.644531 301.078125 88.96875 C 300.160156 88.25 300.117188 88.179688 300.050781 87.039062 C 299.902344 84.707031 297.75 80.277344 295.5625 77.824219 C 291.894531 73.65625 288.160156 71.246094 283.726562 70.125 C 282.5625 69.820312 280.875 69.519531 279.980469 69.425781 Z M 283.636719 74.9375 C 285.207031 75.425781 288.597656 77.433594 290.019531 78.710938 C 293.511719 81.886719 295.121094 85.035156 295.621094 89.640625 C 295.785156 91.058594 295.867188 91.308594 296.277344 91.492188 C 297.660156 92.136719 298.074219 92.382812 298.796875 93.101562 C 303.085938 97.304688 304.488281 103.699219 302.390625 109.621094 C 300.820312 114.078125 297.066406 118.167969 293.011719 119.835938 C 291.585938 120.410156 288.949219 121.074219 287.15625 121.277344 L 285.558594 121.460938 L 263.65625 116.839844 L 241.753906 112.238281 L 240.09375 111.4375 C 236.441406 109.648438 233.761719 106.875 231.941406 102.984375 C 230.925781 100.800781 230.429688 98.726562 230.339844 96.3125 C 230.269531 94.722656 230.351562 93.980469 230.835938 91.785156 C 231.921875 86.777344 233 85 236.742188 82.152344 C 238.253906 80.996094 239.507812 80.425781 241.511719 79.976562 C 244.699219 79.269531 244.433594 79.410156 244.835938 78.25 C 246.082031 74.695312 250.347656 72.585938 254.910156 73.285156 C 257.929688 73.75 260.117188 75.09375 262.355469 77.847656 C 263.015625 78.667969 263.648438 79.351562 263.738281 79.386719 C 263.851562 79.410156 264.402344 79.023438 264.992188 78.542969 C 267.730469 76.285156 270.234375 75.042969 273.382812 74.332031 C 275.957031 73.769531 279.921875 73.816406 281.929688 74.4375 C 282.246094 74.523438 282.992188 74.761719 283.636719 74.9375 Z M 283.636719 74.9375 " fill-opacity="1" fill-rule="nonzero"/></g></g></g><g clip-path="url(#41374e49fb)"><g clip-path="url(#b383fe553f)"><g clip-path="url(#ac900a5476)"><path fill="#443320" d="M 283.265625 84.214844 C 283.785156 84.765625 283.945312 85.558594 283.679688 86.257812 L 274.53125 110.394531 C 274.316406 110.957031 273.851562 111.390625 273.277344 111.570312 C 272.699219 111.75 272.074219 111.652344 271.578125 111.308594 L 265.035156 106.800781 L 259.980469 110.371094 C 259.324219 110.839844 258.445312 110.851562 257.769531 110.40625 C 257.089844 109.964844 256.761719 109.148438 256.933594 108.355469 L 258 103.339844 C 258.050781 103.101562 258.1875 102.890625 258.386719 102.746094 L 270.773438 93.921875 C 271.203125 93.617188 271.316406 93.035156 271.03125 92.597656 C 270.75 92.160156 270.171875 92.011719 269.722656 92.273438 L 255.214844 100.515625 L 250.480469 96.738281 C 249.914062 96.285156 249.640625 95.5625 249.773438 94.851562 C 249.90625 94.140625 250.417969 93.558594 251.105469 93.335938 L 281.246094 83.699219 C 281.964844 83.46875 282.75 83.671875 283.265625 84.214844 Z M 283.265625 84.214844 " fill-opacity="1" fill-rule="nonzero"/></g></g></g><g clip-path="url(#e61e551cac)"><g clip-path="url(#2dd17e0839)"><g clip-path="url(#d2895f38be)"><path fill="#443320" d="M 211.128906 110.074219 C 206.703125 110.113281 202.5 111.402344 198.339844 113.980469 L 196.199219 115.320312 L 195.582031 114.953125 C 194.699219 114.425781 192.289062 113.230469 191.328125 112.867188 C 190.167969 112.40625 185.695312 111.96875 184.125 112.15625 C 181.316406 112.492188 178.777344 113.601562 176.707031 115.386719 C 175.195312 116.710938 174.285156 117.808594 173.640625 119.105469 C 173.261719 119.851562 172.957031 120.222656 172.535156 120.394531 C 169.582031 121.632812 166.304688 124.007812 164.515625 126.222656 C 161.351562 130.160156 160.304688 133.007812 159.925781 138.789062 C 159.660156 142.648438 159.777344 143.40625 161.003906 146.703125 C 162.863281 151.710938 166.035156 155.640625 170.484375 158.453125 C 172.628906 159.8125 174.027344 160.410156 176.542969 161.082031 C 178.1875 161.511719 181.175781 161.84375 199.734375 163.691406 C 223.027344 166.027344 221.828125 165.949219 225.546875 165.148438 C 227.714844 164.691406 230.921875 163.4375 232.753906 162.335938 C 235.761719 160.546875 239.136719 156.996094 240.546875 154.148438 C 242.167969 150.902344 243.070312 147.199219 243.058594 143.8125 C 243.066406 141.226562 242.855469 139.847656 242.183594 137.753906 C 240.707031 133.109375 237.96875 129.429688 234.269531 127.152344 C 233.277344 126.539062 233.226562 126.476562 233.03125 125.34375 C 232.628906 123.046875 229.996094 118.882812 227.550781 116.6875 C 223.441406 112.953125 219.460938 110.972656 214.929688 110.351562 C 213.742188 110.175781 212.03125 110.066406 211.128906 110.074219 Z M 215.375 115.144531 C 216.992188 115.457031 220.582031 117.074219 222.140625 118.183594 C 225.960938 120.953125 227.910156 123.902344 228.917969 128.421875 C 229.242188 129.8125 229.351562 130.054688 229.777344 130.191406 C 231.222656 130.679688 231.664062 130.875 232.460938 131.511719 C 237.1875 135.210938 239.296875 141.410156 237.867188 147.527344 C 236.800781 152.132812 233.527344 156.613281 229.683594 158.722656 C 228.328125 159.449219 225.785156 160.40625 224.023438 160.804688 L 222.453125 161.167969 L 200.175781 159.007812 L 177.898438 156.867188 L 176.15625 156.257812 C 172.332031 154.882812 169.359375 152.429688 167.117188 148.761719 C 165.863281 146.703125 165.144531 144.699219 164.785156 142.308594 C 164.539062 140.734375 164.535156 139.988281 164.777344 137.753906 C 165.296875 132.65625 166.171875 130.769531 169.574219 127.527344 C 170.949219 126.207031 172.128906 125.5 174.070312 124.832031 C 177.160156 123.777344 176.914062 123.945312 177.1875 122.746094 C 178.027344 119.078125 182.03125 116.503906 186.644531 116.691406 C 189.695312 116.820312 192.019531 117.910156 194.546875 120.402344 C 195.296875 121.144531 196.003906 121.75 196.097656 121.777344 C 196.210938 121.789062 196.714844 121.34375 197.246094 120.800781 C 199.71875 118.25 202.070312 116.738281 205.121094 115.683594 C 207.617188 114.835938 211.558594 114.441406 213.625 114.835938 C 213.945312 114.886719 214.714844 115.039062 215.375 115.144531 Z M 215.375 115.144531 " fill-opacity="1" fill-rule="nonzero"/></g></g></g><g clip-path="url(#73974a0ca4)"><g clip-path="url(#23950a2273)"><g clip-path="url(#5d46ab70e3)"><path fill="#443320" d="M 216.238281 133.832031 C 216.433594 132.0625 215.15625 130.472656 213.386719 130.277344 C 211.617188 130.085938 210.027344 131.363281 209.832031 133.132812 L 209.015625 140.605469 L 215.421875 141.304688 Z M 220.511719 134.296875 L 218.878906 149.246094 C 218.425781 153.375 214.71875 156.355469 210.589844 155.902344 C 206.457031 155.453125 203.480469 151.746094 203.929688 147.613281 L 205.230469 135.707031 C 204.972656 136.96875 204.40625 138.183594 203.511719 139.222656 L 193.570312 150.785156 C 190.824219 153.976562 186.074219 154.308594 182.953125 151.523438 C 179.835938 148.738281 179.535156 143.890625 182.28125 140.699219 L 192.21875 129.136719 C 194.964844 125.9375 199.722656 125.613281 202.835938 128.398438 C 204.558594 129.9375 205.421875 132.109375 205.386719 134.28125 L 205.5625 132.664062 C 206.015625 128.535156 209.722656 125.558594 213.851562 126.007812 C 217.984375 126.460938 220.960938 130.167969 220.511719 134.296875 Z M 200.25 136.421875 C 201.488281 134.984375 201.320312 132.804688 199.972656 131.597656 C 198.667969 130.433594 196.679688 130.539062 195.480469 131.929688 L 190.296875 137.953125 L 195.222656 142.273438 Z M 185.824219 148.316406 C 185.871094 148.363281 185.921875 148.402344 185.972656 148.441406 L 185.726562 148.226562 C 185.757812 148.253906 185.785156 148.285156 185.824219 148.316406 Z M 185.824219 148.316406 " fill-opacity="1" fill-rule="nonzero"/></g></g></g><g clip-path="url(#b495cc00fd)"><g clip-path="url(#07a515e362)"><g clip-path="url(#0fac275a03)"><path fill="#443320" d="M 153.058594 56.910156 C 148.785156 58.058594 145.039062 60.355469 141.660156 63.886719 L 139.921875 65.714844 L 139.234375 65.515625 C 138.246094 65.226562 135.617188 64.671875 134.597656 64.558594 C 133.359375 64.40625 128.921875 65.097656 127.453125 65.671875 C 124.816406 66.699219 122.636719 68.40625 121.078125 70.652344 C 119.949219 72.308594 119.339844 73.597656 119.042969 75.011719 C 118.859375 75.832031 118.660156 76.265625 118.296875 76.535156 C 115.746094 78.472656 113.167969 81.589844 111.992188 84.179688 C 109.914062 88.78125 109.613281 91.796875 110.691406 97.484375 C 111.398438 101.285156 111.699219 101.988281 113.707031 104.875 C 116.757812 109.253906 120.808594 112.265625 125.820312 113.875 C 128.234375 114.652344 129.734375 114.882812 132.335938 114.902344 C 134.03125 114.90625 137.007812 114.484375 155.425781 111.636719 C 178.546875 108.078125 177.371094 108.300781 180.765625 106.597656 C 182.75 105.613281 185.539062 103.601562 187.035156 102.078125 C 189.5 99.59375 191.878906 95.3125 192.53125 92.207031 C 193.289062 88.660156 193.234375 84.855469 192.378906 81.578125 C 191.738281 79.078125 191.195312 77.792969 190.019531 75.933594 C 187.429688 71.808594 183.863281 68.9375 179.714844 67.65625 C 178.601562 67.308594 178.535156 67.261719 178.066406 66.214844 C 177.097656 64.09375 173.511719 60.722656 170.597656 59.210938 C 165.6875 56.621094 161.34375 55.699219 156.804688 56.230469 C 155.609375 56.359375 153.925781 56.679688 153.058594 56.910156 Z M 158.433594 60.753906 C 160.074219 60.65625 163.953125 61.324219 165.738281 62.007812 C 170.128906 63.734375 172.75 66.097656 174.855469 70.222656 C 175.515625 71.488281 175.679688 71.691406 176.128906 71.71875 C 177.648438 71.828125 178.121094 71.910156 179.054688 72.324219 C 184.550781 74.722656 188.136719 80.195312 188.285156 86.472656 C 188.402344 91.191406 186.355469 96.347656 183.160156 99.347656 C 182.035156 100.390625 179.808594 101.949219 178.203125 102.777344 L 176.78125 103.519531 L 154.683594 106.996094 L 132.59375 110.488281 L 130.757812 110.332031 C 126.710938 109.960938 123.222656 108.324219 120.136719 105.335938 C 118.414062 103.660156 117.214844 101.902344 116.269531 99.679688 C 115.640625 98.214844 115.449219 97.496094 115.125 95.273438 C 114.355469 90.210938 114.730469 88.167969 117.210938 84.179688 C 118.210938 82.558594 119.175781 81.582031 120.886719 80.449219 C 123.613281 78.65625 123.417969 78.878906 123.382812 77.652344 C 123.277344 73.890625 126.511719 70.402344 131.023438 69.429688 C 134.003906 68.792969 136.527344 69.269531 139.59375 71.046875 C 140.507812 71.578125 141.339844 71.988281 141.4375 71.992188 C 141.550781 71.972656 141.925781 71.414062 142.304688 70.757812 C 144.058594 67.671875 145.957031 65.625 148.644531 63.839844 C 150.847656 62.398438 154.566406 61.03125 156.664062 60.894531 C 156.988281 60.867188 157.769531 60.820312 158.433594 60.753906 Z M 158.433594 60.753906 " fill-opacity="1" fill-rule="nonzero"/></g></g></g><g clip-path="url(#06922ead30)"><g clip-path="url(#8201c2d362)"><g clip-path="url(#3666516bfa)"><g clip-path="url(#7a5662b396)"><g clip-path="url(#dc011f83f0)"><path fill="#443320" d="M 153.296875 60.128906 C 149.191406 61.308594 145.925781 63.289062 142.789062 66.554688 L 140.992188 68.414062 L 139.160156 67.96875 C 136.097656 67.257812 135.210938 67.214844 132.382812 67.660156 C 129.414062 68.144531 127.945312 68.726562 125.859375 70.265625 C 124.855469 71.011719 124.175781 71.703125 123.210938 73.03125 C 122.09375 74.5625 121.8125 75.101562 121.347656 76.679688 C 120.898438 78.144531 120.660156 78.621094 120.25 78.925781 C 119.445312 79.511719 117.761719 81.167969 116.757812 82.375 C 114.902344 84.574219 112.992188 89.09375 112.730469 91.847656 C 112.453125 94.882812 113.175781 100.160156 114.203125 102.605469 C 115.082031 104.703125 117.53125 107.914062 119.703125 109.808594 C 122.828125 112.527344 126.871094 114.441406 130.683594 115.011719 C 133.953125 115.507812 134.3125 115.46875 156.066406 112.082031 L 176.117188 108.941406 L 178.089844 108.082031 C 184.066406 105.492188 187.949219 101.722656 190.15625 96.40625 C 192.46875 90.832031 191.914062 83.34375 188.808594 78.292969 C 187.445312 76.050781 184.910156 73.347656 183.136719 72.214844 C 181.8125 71.378906 180.050781 70.554688 178.824219 70.21875 C 177.824219 69.933594 177.78125 69.886719 177.222656 68.78125 C 176.902344 68.152344 176.085938 67.035156 175.398438 66.28125 C 171.328125 61.859375 164.5 59.046875 158.386719 59.257812 C 156.402344 59.332031 155.683594 59.441406 153.296875 60.128906 Z M 160.210938 63.71875 C 163.140625 63.9375 165.835938 64.742188 168.292969 66.132812 C 170.992188 67.652344 172.511719 69.378906 174.644531 73.261719 C 175.050781 73.984375 175.195312 74.074219 176.472656 74.164062 C 178.347656 74.308594 181.128906 76 183.25 78.289062 C 185.660156 80.898438 186.988281 84.339844 187.082031 88.195312 C 187.121094 90.171875 186.90625 91.507812 186.183594 93.785156 C 184.816406 98.144531 182.078125 101.253906 177.484375 103.664062 L 176.128906 104.375 L 154.652344 107.773438 L 133.175781 111.15625 L 131.292969 110.84375 C 125.871094 109.957031 120.976562 106.25 118.695312 101.328125 C 117.84375 99.519531 117.179688 96.707031 117.074219 94.632812 C 116.921875 90.859375 117.296875 89.40625 119.363281 86 C 120.300781 84.476562 121.976562 82.890625 123.675781 81.925781 C 125.242188 81.039062 125.382812 80.867188 125.25 80.027344 C 125.1875 79.652344 125.269531 78.757812 125.433594 78.054688 C 125.789062 76.476562 126.839844 74.988281 128.449219 73.800781 C 130.140625 72.542969 131.4375 72.046875 133.585938 71.816406 C 136.328125 71.53125 137.777344 71.875 140.808594 73.542969 C 141.675781 74.03125 142.449219 74.402344 142.503906 74.394531 C 142.574219 74.382812 142.867188 73.914062 143.179688 73.335938 C 144.234375 71.40625 145.339844 69.929688 146.667969 68.695312 C 150.558594 65.09375 155.257812 63.363281 160.210938 63.71875 Z M 160.210938 63.71875 " fill-opacity="1" fill-rule="nonzero"/></g></g></g></g></g><g clip-path="url(#5d38377912)"><g clip-path="url(#2f0e5ec98b)"><g clip-path="url(#debdb13def)"><g clip-path="url(#855e404d9e)"><g clip-path="url(#c85f69d3a6)"><path fill="#443320" d="M 133.554688 81.289062 C 131.03125 82.492188 128.644531 84.703125 127.519531 86.878906 C 126.664062 88.554688 125.9375 91.402344 125.972656 93.011719 C 126.011719 95.699219 126.851562 98.136719 128.480469 100.320312 C 129.59375 101.796875 132.261719 103.722656 133.835938 104.171875 C 137.855469 105.335938 141.75 104.6875 144.953125 102.3125 C 146.660156 101.035156 150.96875 95.441406 150.847656 94.652344 C 150.789062 94.292969 147.25 91.734375 147.125 91.992188 C 145.53125 95.160156 143.496094 97.957031 141.910156 99.066406 C 140.824219 99.84375 140.648438 99.90625 138.96875 100.171875 C 137.339844 100.429688 137.078125 100.414062 136.019531 100.085938 C 134.472656 99.578125 132.664062 98.339844 131.925781 97.28125 C 130.753906 95.539062 130.371094 93.804688 130.609375 91.125 C 130.710938 90.136719 130.867188 89.726562 131.476562 88.824219 C 133.113281 86.417969 135.269531 85.199219 137.910156 85.1875 C 139.980469 85.171875 140.960938 85.570312 143.597656 87.519531 C 144.84375 88.460938 146.371094 89.542969 146.960938 89.890625 C 148.300781 90.722656 150.988281 92.867188 152.671875 94.476562 C 153.773438 95.53125 157.871094 98.371094 160.042969 99.585938 C 161.207031 100.230469 163.019531 100.660156 164.746094 100.699219 C 166.625 100.734375 167.46875 100.621094 168.875 100.121094 C 171.574219 99.203125 173.628906 97.816406 174.773438 96.113281 C 176.164062 94.097656 176.460938 93.425781 177.039062 91.261719 L 177.582031 89.140625 L 177.175781 86.546875 C 176.789062 84.09375 176.71875 83.882812 176.050781 82.777344 C 174.269531 79.847656 172.304688 78.085938 169.730469 77.132812 C 166.460938 75.925781 163.515625 75.855469 160.972656 76.953125 C 157.898438 78.28125 156.710938 79.238281 154.480469 82.195312 C 152.386719 84.980469 152.425781 84.882812 153.46875 86.039062 C 153.9375 86.570312 154.523438 87.25 154.769531 87.542969 C 155.019531 87.832031 155.367188 88.070312 155.535156 88.082031 C 155.738281 88.085938 156.535156 87.207031 157.648438 85.769531 C 159.761719 83.011719 160.957031 81.871094 162.152344 81.410156 C 164.640625 80.449219 167.011719 80.714844 169.269531 82.230469 C 172.839844 84.640625 173.75 89.359375 171.332031 93.003906 C 169.539062 95.707031 166.398438 96.863281 163.238281 96.003906 C 162.144531 95.699219 158.644531 93.167969 155.808594 90.640625 C 153.785156 88.851562 146.972656 83.90625 144.320312 82.328125 C 143.207031 81.65625 141.71875 80.957031 140.773438 80.664062 C 139.175781 80.164062 139.15625 80.167969 136.890625 80.46875 C 135.113281 80.710938 134.40625 80.878906 133.554688 81.289062 Z M 133.554688 81.289062 " fill-opacity="1" fill-rule="nonzero"/></g></g></g></g></g></svg>