<svg xmlns="http://www.w3.org/2000/svg" xmlns:xlink="http://www.w3.org/1999/xlink" width="400" zoomAndPan="magnify" viewBox="0 0 300 225" height="300" preserveAspectRatio="xMidYMid meet" version="1.0"><defs><clipPath id="b72198d5d8"><path d="M 7 22 L 295 22 L 295 211 L 7 211 Z M 7 22 " clip-rule="nonzero"/></clipPath><clipPath id="c8ef0bf3e2"><path d="M -19.21875 13.84375 L 335.195312 14.488281 L 334.8125 223.59375 L -19.597656 222.949219 Z M -19.21875 13.84375 " clip-rule="nonzero"/></clipPath><clipPath id="56383ea2f7"><path d="M -174.421875 -119.890625 L 498.964844 -118.667969 L 497.738281 554.71875 L -175.648438 553.492188 Z M -174.421875 -119.890625 " clip-rule="nonzero"/></clipPath><clipPath id="0b09dc74c1"><path d="M 90 68 L 199 68 L 199 177 L 90 177 Z M 90 68 " clip-rule="nonzero"/></clipPath><clipPath id="5bf9f15664"><path d="M 90.160156 68.714844 L 200.027344 68.914062 L 199.828125 178.78125 L 89.960938 178.582031 Z M 90.160156 68.714844 " clip-rule="nonzero"/></clipPath><clipPath id="6c88ef7721"><path d="M 90.160156 68.714844 L 200.027344 68.914062 L 199.828125 178.78125 L 89.960938 178.582031 Z M 90.160156 68.714844 " clip-rule="nonzero"/></clipPath></defs><g clip-path="url(#b72198d5d8)"><g clip-path="url(#c8ef0bf3e2)"><g clip-path="url(#56383ea2f7)"><path fill="#239bea" d="M 173.816406 22.570312 C 158.652344 24.183594 144.664062 30 131.257812 40.214844 L 124.355469 45.515625 L 122.125 44.460938 C 118.914062 42.945312 110.257812 39.648438 106.84375 38.726562 C 102.710938 37.535156 87.222656 37.507812 81.90625 38.679688 C 72.386719 40.761719 64.042969 45.40625 57.53125 52.21875 C 52.796875 57.265625 50.035156 61.328125 48.253906 65.984375 C 47.199219 68.675781 46.277344 70.050781 44.898438 70.769531 C 35.175781 76.003906 24.722656 85.238281 19.324219 93.433594 C 9.78125 107.984375 7.140625 118.085938 7.757812 138.039062 C 8.128906 151.363281 8.78125 153.925781 14.078125 164.828125 C 22.117188 181.382812 34.304688 193.808594 50.5 201.976562 C 58.300781 205.929688 63.289062 207.511719 72.144531 208.972656 C 77.917969 209.902344 88.289062 210.054688 152.539062 210.234375 C 233.199219 210.511719 229.066406 210.636719 241.542969 206.65625 C 248.832031 204.371094 259.40625 199.011719 265.320312 194.625 C 275.046875 187.488281 285.441406 174.183594 289.332031 163.953125 C 293.816406 152.277344 295.679688 139.285156 294.519531 127.667969 C 293.679688 118.804688 292.507812 114.144531 289.503906 107.183594 C 282.902344 91.746094 272.289062 80.046875 258.847656 73.457031 C 255.242188 71.679688 255.046875 71.480469 254.003906 67.671875 C 251.851562 59.925781 241.441406 46.515625 232.328125 39.804688 C 216.992188 28.359375 202.695312 22.886719 186.945312 22.265625 C 182.808594 22.0625 176.902344 22.246094 173.816406 22.570312 Z M 190.066406 38.546875 C 195.707031 39.082031 208.5625 43.4375 214.269531 46.730469 C 228.296875 54.960938 235.960938 64.425781 240.921875 79.59375 C 242.488281 84.257812 242.945312 85.046875 244.453125 85.375 C 249.570312 86.566406 251.144531 87.09375 254.09375 89.003906 C 271.53125 100.125 280.8125 120.6875 277.953125 142.140625 C 275.824219 158.285156 266.082031 174.738281 253.59375 183.25 C 249.191406 186.195312 240.785156 190.3125 234.875 192.269531 L 229.621094 194.035156 L 152.503906 194.023438 L 75.386719 194.082031 L 69.222656 192.558594 C 55.640625 189.121094 44.628906 181.6875 35.726562 169.855469 C 30.75 163.21875 27.609375 156.585938 25.589844 148.507812 C 24.222656 143.191406 23.964844 140.628906 24.042969 132.886719 C 24.140625 115.230469 26.515625 108.476562 37.105469 96.222656 C 41.382812 91.242188 45.191406 88.425781 51.628906 85.484375 C 61.878906 80.84375 61.089844 81.5 61.621094 77.300781 C 63.285156 64.4375 76.167969 54.289062 92.050781 53.398438 C 102.554688 52.828125 110.882812 55.796875 120.386719 63.492188 C 123.203125 65.792969 125.824219 67.636719 126.152344 67.703125 C 126.546875 67.703125 128.125 66 129.769531 63.96875 C 137.402344 54.402344 144.957031 48.441406 155.074219 43.800781 C 163.351562 40.074219 176.746094 37.40625 183.960938 38.078125 C 185.078125 38.144531 187.769531 38.414062 190.066406 38.546875 Z M 190.066406 38.546875 " fill-opacity="1" fill-rule="nonzero"/></g></g></g><g clip-path="url(#0b09dc74c1)"><g clip-path="url(#5bf9f15664)"><g clip-path="url(#6c88ef7721)"><path fill="#239bea" d="M 195.371094 70.085938 C 197.503906 71.570312 198.617188 74.128906 198.210938 76.683594 L 184.535156 164.53125 C 184.210938 166.582031 182.964844 168.375 181.144531 169.382812 C 179.328125 170.394531 177.152344 170.515625 175.230469 169.710938 L 149.984375 159.167969 L 135.488281 174.792969 C 133.605469 176.839844 130.644531 177.507812 128.046875 176.492188 C 125.453125 175.472656 123.765625 172.957031 123.773438 170.167969 L 123.804688 152.507812 C 123.804688 151.664062 124.125 150.859375 124.695312 150.226562 L 160.167969 111.679688 C 161.394531 110.351562 161.359375 108.300781 160.09375 107.03125 C 158.828125 105.761719 156.777344 105.671875 155.445312 106.875 L 112.410156 144.96875 L 93.777344 135.597656 C 91.539062 134.472656 90.105469 132.230469 90.046875 129.738281 C 89.988281 127.246094 91.304688 124.925781 93.460938 123.683594 L 188.191406 69.777344 C 190.453125 68.496094 193.242188 68.625 195.371094 70.085938 Z M 195.371094 70.085938 " fill-opacity="1" fill-rule="nonzero"/></g></g></g></svg>