<svg xmlns="http://www.w3.org/2000/svg" xmlns:xlink="http://www.w3.org/1999/xlink" width="400" zoomAndPan="magnify" viewBox="0 0 300 225" height="300" preserveAspectRatio="xMidYMid meet" version="1.0"><defs><clipPath id="2fc34d91ca"><path d="M 10 17 L 292 17 L 292 202 L 10 202 Z M 10 17 " clip-rule="nonzero"/></clipPath><clipPath id="e9348fb4ac"><path d="M -15.695312 9.367188 L 330.804688 9.996094 L 330.429688 215.496094 L -16.066406 214.863281 Z M -15.695312 9.367188 " clip-rule="nonzero"/></clipPath><clipPath id="035f101a4d"><path d="M -167.308594 -121.277344 L 488.941406 -120.082031 L 487.746094 536.164062 L -168.5 534.972656 Z M -167.308594 -121.277344 " clip-rule="nonzero"/></clipPath><clipPath id="c8322c5cfd"><path d="M 62.84375 86.480469 L 238.34375 86.480469 L 238.34375 174.230469 L 62.84375 174.230469 Z M 62.84375 86.480469 " clip-rule="nonzero"/></clipPath><clipPath id="b53bb52156"><path d="M 62.84375 130.421875 C 62.84375 154.691406 82.519531 174.367188 106.789062 174.367188 L 194.671875 174.367188 C 218.941406 174.367188 238.613281 154.691406 238.613281 130.421875 C 238.613281 106.15625 218.941406 86.480469 194.671875 86.480469 L 106.789062 86.480469 C 82.519531 86.480469 62.84375 106.15625 62.84375 130.421875 Z M 62.84375 130.421875 " clip-rule="nonzero"/></clipPath><clipPath id="16493f48c2"><path d="M 63 87 L 238 87 L 238 171 L 63 171 Z M 63 87 " clip-rule="nonzero"/></clipPath><clipPath id="b9e702d89d"><path d="M 62.84375 130.421875 C 62.84375 154.691406 82.519531 174.367188 106.789062 174.367188 L 194.671875 174.367188 C 218.941406 174.367188 238.613281 154.691406 238.613281 130.421875 C 238.613281 106.15625 218.941406 86.480469 194.671875 86.480469 L 106.789062 86.480469 C 82.519531 86.480469 62.84375 106.15625 62.84375 130.421875 Z M 62.84375 130.421875 " clip-rule="nonzero"/></clipPath></defs><g clip-path="url(#2fc34d91ca)"><g clip-path="url(#e9348fb4ac)"><g clip-path="url(#035f101a4d)"><path fill="#239bea" d="M 172.875 17.886719 C 158.0625 19.464844 144.398438 25.144531 131.300781 35.125 L 124.558594 40.304688 L 122.378906 39.273438 C 119.242188 37.792969 110.785156 34.574219 107.453125 33.667969 C 103.414062 32.507812 88.285156 32.480469 83.089844 33.625 C 73.789062 35.660156 65.640625 40.195312 59.28125 46.851562 C 54.65625 51.78125 51.957031 55.75 50.214844 60.300781 C 49.1875 62.925781 48.285156 64.269531 46.9375 64.972656 C 37.441406 70.085938 27.230469 79.105469 21.957031 87.113281 C 12.636719 101.328125 10.054688 111.195312 10.660156 130.6875 C 11.019531 143.703125 11.65625 146.203125 16.832031 156.855469 C 24.6875 173.027344 36.589844 185.164062 52.410156 193.144531 C 60.03125 197.003906 64.902344 198.550781 73.554688 199.980469 C 79.195312 200.886719 89.324219 201.03125 152.089844 201.210938 C 230.882812 201.484375 226.84375 201.605469 239.03125 197.714844 C 246.152344 195.484375 256.484375 190.246094 262.261719 185.960938 C 271.765625 178.988281 281.917969 165.992188 285.71875 156 C 290.097656 144.59375 291.917969 131.902344 290.785156 120.554688 C 289.964844 111.898438 288.820312 107.34375 285.882812 100.542969 C 279.4375 85.464844 269.070312 74.035156 255.9375 67.597656 C 252.414062 65.859375 252.222656 65.667969 251.203125 61.949219 C 249.101562 54.378906 238.933594 41.28125 230.035156 34.726562 C 215.050781 23.542969 201.085938 18.195312 185.699219 17.589844 C 181.660156 17.390625 175.890625 17.574219 172.875 17.886719 Z M 188.746094 33.496094 C 194.261719 34.019531 206.816406 38.273438 212.390625 41.488281 C 226.09375 49.527344 233.578125 58.773438 238.425781 73.59375 C 239.957031 78.148438 240.402344 78.917969 241.878906 79.242188 C 246.875 80.402344 248.414062 80.921875 251.296875 82.785156 C 268.328125 93.652344 277.398438 113.734375 274.601562 134.695312 C 272.519531 150.460938 263.003906 166.535156 250.808594 174.847656 C 246.507812 177.726562 238.292969 181.75 232.519531 183.664062 L 227.386719 185.382812 L 152.054688 185.375 L 76.722656 185.429688 L 70.699219 183.945312 C 57.433594 180.585938 46.675781 173.324219 37.976562 161.765625 C 33.117188 155.28125 30.050781 148.800781 28.078125 140.914062 C 26.742188 135.71875 26.488281 133.214844 26.566406 125.652344 C 26.664062 108.40625 28.984375 101.804688 39.328125 89.835938 C 43.503906 84.972656 47.226562 82.222656 53.515625 79.347656 C 63.523438 74.8125 62.753906 75.453125 63.273438 71.351562 C 64.902344 58.789062 77.484375 48.875 93 48.003906 C 103.261719 47.445312 111.398438 50.34375 120.679688 57.863281 C 123.433594 60.113281 125.992188 61.914062 126.3125 61.976562 C 126.699219 61.976562 128.242188 60.3125 129.847656 58.328125 C 137.300781 48.980469 144.683594 43.160156 154.566406 38.628906 C 162.652344 34.988281 175.734375 32.382812 182.785156 33.035156 C 183.875 33.101562 186.503906 33.363281 188.746094 33.496094 Z M 188.746094 33.496094 " fill-opacity="1" fill-rule="nonzero"/></g></g></g><g clip-path="url(#c8322c5cfd)"><g clip-path="url(#b53bb52156)"><path fill="#239bea" d="M 171.96875 28.71875 C 157.6875 30.488281 145.789062 35.371094 133.644531 44.585938 L 126.6875 49.832031 L 120.828125 47.394531 C 111.003906 43.425781 108.074219 42.816406 98.433594 42.816406 C 88.300781 42.875 83.113281 44.035156 75.363281 48.0625 C 71.644531 50.015625 69.019531 51.96875 65.113281 55.875 C 60.597656 60.390625 59.375 62.039062 56.996094 67.042969 C 54.738281 71.679688 53.703125 73.144531 52.175781 73.9375 C 49.1875 75.464844 42.71875 80.101562 38.75 83.582031 C 31.425781 89.925781 22.699219 103.960938 20.382812 112.992188 C 17.878906 122.941406 17.515625 140.882812 19.648438 149.546875 C 21.480469 156.992188 27.949219 168.953125 34.171875 176.398438 C 43.144531 187.078125 55.59375 195.558594 67.980469 199.464844 C 78.597656 202.820312 79.820312 202.882812 153.964844 203.003906 L 222.3125 203.066406 L 229.328125 201.234375 C 250.566406 195.742188 265.457031 185.246094 275.585938 168.710938 C 286.203125 151.378906 288.28125 126.175781 280.589844 107.746094 C 277.234375 99.570312 270.214844 89.253906 264.90625 84.554688 C 260.941406 81.078125 255.507812 77.417969 251.605469 75.648438 C 248.429688 74.183594 248.308594 74 247.027344 70.03125 C 246.292969 67.773438 244.160156 63.625 242.265625 60.757812 C 231.039062 43.914062 209.800781 30.976562 189.359375 28.476562 C 182.707031 27.683594 180.265625 27.683594 171.96875 28.71875 Z M 193.082031 44.28125 C 202.722656 46.539062 211.265625 50.628906 218.710938 56.546875 C 226.890625 63.015625 231.039062 69.542969 236.105469 83.582031 C 237.078125 86.203125 237.507812 86.570312 241.71875 87.546875 C 247.882812 89.011719 256.242188 96.089844 262.101562 104.816406 C 268.75 114.765625 271.375 126.90625 269.667969 139.785156 C 268.75 146.375 267.347656 150.707031 263.746094 157.90625 C 256.914062 171.699219 246.171875 180.609375 229.636719 186.222656 L 224.753906 187.871094 L 151.523438 187.933594 L 78.292969 187.933594 L 72.191406 185.917969 C 54.617188 180.121094 40.277344 165.230469 35.273438 147.65625 C 33.378906 141.1875 32.648438 131.484375 33.378906 124.527344 C 34.84375 111.894531 36.859375 107.257812 45.523438 97.003906 C 49.429688 92.429688 55.835938 88.035156 62 85.714844 C 67.675781 83.582031 68.226562 83.09375 68.226562 80.222656 C 68.226562 78.941406 68.957031 76.011719 69.871094 73.753906 C 71.886719 68.691406 76.160156 64.296875 82.140625 61.183594 C 88.425781 57.890625 93 56.914062 100.261719 57.277344 C 109.539062 57.765625 114.175781 59.660156 123.390625 66.796875 C 126.015625 68.875 128.394531 70.519531 128.578125 70.519531 C 128.824219 70.519531 130.042969 69.117188 131.386719 67.347656 C 135.902344 61.488281 140.355469 57.15625 145.421875 53.738281 C 160.25 43.792969 176.789062 40.496094 193.082031 44.28125 Z M 193.082031 44.28125 " fill-opacity="1" fill-rule="nonzero"/></g></g><g clip-path="url(#16493f48c2)"><g clip-path="url(#b9e702d89d)"><path fill="#239bea" d="M 95.199219 88.765625 C 86.167969 91.453125 77.074219 97.554688 72.191406 104.207031 C 68.46875 109.332031 64.5625 118.425781 63.832031 123.796875 C 62.550781 132.765625 64.074219 141.308594 68.347656 149.425781 C 71.277344 154.917969 79.148438 162.730469 84.152344 165.046875 C 96.90625 171.027344 110.210938 170.90625 122.109375 164.683594 C 128.457031 161.324219 145.726562 144.972656 145.726562 142.285156 C 145.726562 141.066406 135.292969 130.691406 134.742188 131.484375 C 127.785156 141.1875 119.546875 149.425781 113.6875 152.292969 C 109.660156 154.308594 109.050781 154.429688 103.3125 154.429688 C 97.761719 154.429688 96.90625 154.246094 93.550781 152.597656 C 88.667969 150.097656 83.296875 145.03125 81.40625 141.125 C 78.417969 134.71875 78.050781 128.738281 80.246094 119.949219 C 81.101562 116.714844 81.832031 115.433594 84.335938 112.75 C 91.046875 105.609375 98.859375 102.679688 107.648438 104.023438 C 114.542969 105.0625 117.59375 106.890625 125.34375 114.765625 C 129.003906 118.546875 133.519531 122.941406 135.292969 124.40625 C 139.320312 127.882812 147.128906 136.425781 151.890625 142.652344 C 155.003906 146.742188 167.144531 158.335938 173.738281 163.523438 C 177.277344 166.269531 183.074219 168.648438 188.808594 169.6875 C 195.035156 170.785156 197.902344 170.84375 202.84375 169.929688 C 212.304688 168.28125 219.871094 164.742188 224.570312 159.679688 C 230.246094 153.699219 231.585938 151.621094 234.640625 144.726562 L 237.566406 137.953125 L 237.566406 129.105469 C 237.566406 120.746094 237.445312 120.011719 235.796875 115.984375 C 231.40625 105.304688 225.789062 98.410156 217.734375 93.894531 C 207.484375 88.15625 197.71875 86.386719 188.6875 88.707031 C 177.765625 91.511719 173.308594 94.078125 164.339844 102.742188 C 155.917969 110.917969 156.101562 110.613281 158.96875 115.007812 C 160.25 117.023438 161.835938 119.585938 162.507812 120.683594 C 163.179688 121.78125 164.214844 122.757812 164.765625 122.878906 C 165.4375 123.003906 168.550781 120.5 173.003906 116.289062 C 181.488281 108.234375 186.0625 105.0625 190.273438 104.144531 C 199.0625 102.253906 206.8125 104.390625 213.523438 110.613281 C 224.144531 120.5 224.691406 136.671875 214.746094 147.535156 C 207.359375 155.589844 196.316406 157.785156 186.246094 153.269531 C 182.769531 151.683594 172.453125 141.429688 164.339844 131.546875 C 158.542969 124.527344 138.464844 104.511719 130.46875 97.859375 C 127.113281 95.054688 122.535156 91.941406 119.546875 90.476562 C 114.480469 87.972656 114.421875 87.972656 106.730469 87.789062 C 100.691406 87.667969 98.25 87.851562 95.199219 88.765625 Z M 95.199219 88.765625 " fill-opacity="1" fill-rule="nonzero"/></g></g></svg>