<svg xmlns="http://www.w3.org/2000/svg" xmlns:xlink="http://www.w3.org/1999/xlink" width="400" zoomAndPan="magnify" viewBox="0 0 300 225" height="300" preserveAspectRatio="xMidYMid meet" version="1.0"><defs><clipPath id="3be36d7376"><path d="M 11 24 L 296 24 L 296 211 L 11 211 Z M 11 24 " clip-rule="nonzero"/></clipPath><clipPath id="79f0b63524"><path d="M -15.5625 16.433594 L 336.1875 16.167969 L 336.34375 224.667969 L -15.40625 224.933594 Z M -15.5625 16.433594 " clip-rule="nonzero"/></clipPath><clipPath id="404527f1cd"><path d="M -169.675781 -115.675781 L 496.324219 -116.175781 L 496.828125 549.824219 L -169.171875 550.324219 Z M -169.675781 -115.675781 " clip-rule="nonzero"/></clipPath><clipPath id="f455ce0c84"><path d="M 83 77 L 216 77 L 216 181 L 83 181 Z M 83 77 " clip-rule="nonzero"/></clipPath><clipPath id="895003bd7c"><path d="M 84.082031 69.417969 L 216.078125 70.699219 L 214.941406 187.691406 L 82.949219 186.414062 Z M 84.082031 69.417969 " clip-rule="nonzero"/></clipPath><clipPath id="19790fc28a"><path d="M 216.066406 70.699219 L 84.070312 69.417969 L 82.9375 186.414062 L 214.929688 187.691406 Z M 216.066406 70.699219 " clip-rule="nonzero"/></clipPath></defs><g clip-path="url(#3be36d7376)"><g clip-path="url(#79f0b63524)"><g clip-path="url(#404527f1cd)"><path fill="#239bea" d="M 175.714844 24.585938 C 160.695312 26.222656 146.847656 32.019531 133.589844 42.171875 L 126.769531 47.445312 L 124.554688 46.40625 C 121.367188 44.914062 112.785156 41.667969 109.402344 40.761719 C 105.304688 39.59375 89.957031 39.605469 84.691406 40.78125 C 75.265625 42.867188 67.011719 47.492188 60.578125 54.257812 C 55.898438 59.269531 53.171875 63.300781 51.417969 67.921875 C 50.378906 70.585938 49.472656 71.953125 48.105469 72.667969 C 38.488281 77.878906 28.15625 87.054688 22.828125 95.1875 C 13.410156 109.628906 10.816406 119.644531 11.480469 139.414062 C 11.882812 152.613281 12.535156 155.148438 17.808594 165.9375 C 25.820312 182.320312 37.925781 194.601562 53.992188 202.652344 C 61.734375 206.546875 66.675781 208.101562 75.457031 209.527344 C 81.179688 210.433594 91.453125 210.554688 155.113281 210.574219 C 235.027344 210.640625 230.933594 210.777344 243.285156 206.800781 C 250.5 204.519531 260.964844 199.179688 266.8125 194.816406 C 276.433594 187.722656 286.695312 174.515625 290.523438 164.367188 C 294.9375 152.789062 296.75 139.914062 295.570312 128.40625 C 294.71875 119.628906 293.542969 115.011719 290.546875 108.121094 C 283.96875 92.84375 273.425781 81.277344 260.089844 74.785156 C 256.511719 73.03125 256.316406 72.835938 255.273438 69.066406 C 253.121094 61.394531 242.773438 48.136719 233.730469 41.511719 C 218.503906 30.210938 204.328125 24.824219 188.71875 24.25 C 184.621094 24.058594 178.769531 24.257812 175.714844 24.585938 Z M 191.851562 40.375 C 197.445312 40.890625 210.195312 45.171875 215.851562 48.417969 C 229.773438 56.535156 237.390625 65.894531 242.34375 80.910156 C 243.90625 85.527344 244.363281 86.308594 245.859375 86.632812 C 250.933594 87.796875 252.492188 88.316406 255.421875 90.199219 C 272.726562 101.175781 281.972656 121.523438 279.195312 142.789062 C 277.125 158.785156 267.515625 175.113281 255.164062 183.578125 C 250.8125 186.507812 242.492188 190.609375 236.640625 192.5625 L 231.441406 194.324219 L 155.035156 194.511719 L 78.628906 194.765625 L 72.515625 193.273438 C 59.054688 189.902344 48.125 182.5625 39.273438 170.863281 C 34.324219 164.300781 31.199219 157.734375 29.175781 149.738281 C 27.808594 144.472656 27.546875 141.9375 27.605469 134.265625 C 27.65625 116.773438 29.992188 110.074219 40.453125 97.90625 C 44.675781 92.960938 48.445312 90.160156 54.816406 87.230469 C 64.957031 82.605469 64.175781 83.257812 64.691406 79.09375 C 66.308594 66.347656 79.046875 56.261719 94.78125 55.335938 C 105.183594 54.746094 113.445312 57.664062 122.878906 65.265625 C 125.679688 67.539062 128.28125 69.359375 128.605469 69.421875 C 128.996094 69.421875 130.554688 67.730469 132.179688 65.714844 C 139.714844 56.214844 147.1875 50.292969 157.199219 45.667969 C 165.390625 41.953125 178.652344 39.277344 185.804688 39.921875 C 186.910156 39.988281 189.578125 40.246094 191.851562 40.375 Z M 191.851562 40.375 " fill-opacity="1" fill-rule="nonzero"/></g></g></g><g clip-path="url(#f455ce0c84)"><g clip-path="url(#895003bd7c)"><g clip-path="url(#19790fc28a)"><path fill="#239bea" d="M 201.082031 103.554688 C 201.140625 97.480469 196.261719 92.507812 190.1875 92.449219 C 184.117188 92.390625 179.140625 97.269531 179.082031 103.339844 L 178.835938 129.003906 L 200.832031 129.21875 Z M 215.746094 103.695312 L 215.246094 155.023438 C 215.109375 169.207031 203.519531 180.574219 189.335938 180.4375 C 175.152344 180.300781 163.785156 168.707031 163.921875 154.523438 L 164.316406 113.648438 C 163.863281 118.019531 162.355469 122.335938 159.660156 126.160156 L 129.796875 168.792969 C 121.550781 180.558594 105.527344 183.289062 93.992188 174.882812 C 82.453125 166.476562 79.792969 150.109375 88.042969 138.34375 L 117.902344 95.710938 C 126.152344 83.921875 142.199219 81.214844 153.710938 89.621094 C 160.082031 94.265625 163.75 101.359375 164.363281 108.742188 L 164.417969 103.199219 C 164.554688 89.015625 176.148438 77.648438 190.332031 77.785156 C 204.515625 77.921875 215.882812 89.511719 215.746094 103.695312 Z M 147.640625 117.746094 C 151.359375 112.445312 150.054688 105.097656 145.070312 101.453125 C 140.246094 97.945312 133.523438 98.980469 129.921875 104.101562 L 114.351562 126.316406 L 132.535156 139.324219 Z M 102.652344 163.027344 C 102.835938 163.167969 103.019531 163.285156 103.199219 163.398438 L 102.289062 162.75 C 102.402344 162.84375 102.515625 162.933594 102.652344 163.027344 Z M 102.652344 163.027344 " fill-opacity="1" fill-rule="nonzero"/></g></g></g></svg>