<svg xmlns="http://www.w3.org/2000/svg" xmlns:xlink="http://www.w3.org/1999/xlink" width="400" zoomAndPan="magnify" viewBox="0 0 300 225" height="300" preserveAspectRatio="xMidYMid meet" version="1.0"><defs><clipPath id="34f895e1ea"><path d="M 9 17 L 291 17 L 291 202 L 9 202 Z M 9 17 " clip-rule="nonzero"/></clipPath><clipPath id="b22afa13d3"><path d="M -16.445312 9.367188 L 330.054688 9.996094 L 329.679688 215.496094 L -16.816406 214.863281 Z M -16.445312 9.367188 " clip-rule="nonzero"/></clipPath><clipPath id="63e143ae4d"><path d="M -168.058594 -121.277344 L 488.191406 -120.082031 L 486.996094 536.164062 L -169.25 534.972656 Z M -168.058594 -121.277344 " clip-rule="nonzero"/></clipPath><clipPath id="0be7b4da2e"><path d="M 92.300781 77.195312 L 207.695312 77.195312 L 207.695312 169.445312 L 92.300781 169.445312 Z M 92.300781 77.195312 " clip-rule="nonzero"/></clipPath></defs><g clip-path="url(#34f895e1ea)"><g clip-path="url(#b22afa13d3)"><g clip-path="url(#63e143ae4d)"><path fill="#239bea" d="M 172.125 17.886719 C 157.3125 19.464844 143.648438 25.144531 130.550781 35.125 L 123.808594 40.304688 L 121.628906 39.273438 C 118.492188 37.792969 110.035156 34.574219 106.703125 33.667969 C 102.664062 32.507812 87.535156 32.480469 82.339844 33.625 C 73.039062 35.660156 64.890625 40.195312 58.53125 46.851562 C 53.90625 51.78125 51.207031 55.75 49.464844 60.300781 C 48.4375 62.925781 47.535156 64.269531 46.1875 64.972656 C 36.691406 70.085938 26.480469 79.105469 21.207031 87.113281 C 11.886719 101.328125 9.304688 111.195312 9.910156 130.6875 C 10.269531 143.703125 10.90625 146.203125 16.082031 156.855469 C 23.9375 173.027344 35.839844 185.164062 51.660156 193.144531 C 59.28125 197.003906 64.152344 198.550781 72.804688 199.980469 C 78.445312 200.886719 88.574219 201.03125 151.339844 201.210938 C 230.132812 201.484375 226.09375 201.605469 238.28125 197.714844 C 245.402344 195.484375 255.734375 190.246094 261.511719 185.960938 C 271.015625 178.988281 281.167969 165.992188 284.96875 156 C 289.347656 144.59375 291.167969 131.902344 290.035156 120.554688 C 289.214844 111.898438 288.070312 107.34375 285.132812 100.542969 C 278.6875 85.464844 268.320312 74.035156 255.1875 67.597656 C 251.664062 65.859375 251.472656 65.667969 250.453125 61.949219 C 248.351562 54.378906 238.183594 41.28125 229.285156 34.726562 C 214.300781 23.542969 200.335938 18.195312 184.949219 17.589844 C 180.910156 17.390625 175.140625 17.574219 172.125 17.886719 Z M 187.996094 33.496094 C 193.511719 34.019531 206.066406 38.273438 211.640625 41.488281 C 225.34375 49.527344 232.828125 58.773438 237.675781 73.59375 C 239.207031 78.148438 239.652344 78.917969 241.128906 79.242188 C 246.125 80.402344 247.664062 80.921875 250.546875 82.785156 C 267.578125 93.652344 276.648438 113.734375 273.851562 134.695312 C 271.769531 150.460938 262.253906 166.535156 250.058594 174.847656 C 245.757812 177.726562 237.542969 181.75 231.769531 183.664062 L 226.636719 185.382812 L 151.304688 185.375 L 75.972656 185.429688 L 69.949219 183.945312 C 56.683594 180.585938 45.925781 173.324219 37.226562 161.765625 C 32.367188 155.28125 29.300781 148.800781 27.328125 140.914062 C 25.992188 135.71875 25.738281 133.214844 25.816406 125.652344 C 25.914062 108.40625 28.234375 101.804688 38.578125 89.835938 C 42.753906 84.972656 46.476562 82.222656 52.765625 79.347656 C 62.773438 74.8125 62.003906 75.453125 62.523438 71.351562 C 64.152344 58.789062 76.734375 48.875 92.25 48.003906 C 102.511719 47.445312 110.648438 50.34375 119.929688 57.863281 C 122.683594 60.113281 125.242188 61.914062 125.5625 61.976562 C 125.949219 61.976562 127.492188 60.3125 129.097656 58.328125 C 136.550781 48.980469 143.933594 43.160156 153.816406 38.628906 C 161.902344 34.988281 174.984375 32.382812 182.035156 33.035156 C 183.125 33.101562 185.753906 33.363281 187.996094 33.496094 Z M 187.996094 33.496094 " fill-opacity="1" fill-rule="nonzero"/></g></g></g><g clip-path="url(#0be7b4da2e)"><path fill="#239bea" d="M 207.800781 85.867188 C 207.800781 81.078125 203.914062 77.195312 199.128906 77.195312 L 141.328125 77.195312 C 136.539062 77.195312 132.65625 81.078125 132.65625 85.867188 L 132.65625 94.535156 L 123.496094 94.535156 C 120.425781 94.535156 117.484375 95.746094 115.316406 97.914062 L 101.351562 111.875 C 99.183594 114.042969 97.972656 116.988281 97.972656 120.058594 L 97.972656 140.777344 C 94.777344 140.777344 92.195312 143.363281 92.195312 146.558594 C 92.195312 149.753906 94.777344 152.339844 97.972656 152.339844 L 103.753906 152.339844 C 103.753906 161.914062 111.523438 169.679688 121.09375 169.679688 C 130.667969 169.679688 138.4375 161.914062 138.4375 152.339844 L 161.558594 152.339844 C 161.558594 161.914062 169.324219 169.679688 178.898438 169.679688 C 188.472656 169.679688 196.238281 161.914062 196.238281 152.339844 L 199.128906 152.339844 C 203.914062 152.339844 207.800781 148.457031 207.800781 143.667969 Z M 132.65625 123.4375 L 109.535156 123.4375 L 109.535156 120.058594 L 123.496094 106.097656 L 132.65625 106.097656 Z M 178.898438 161.007812 C 178.328125 161.007812 177.765625 160.953125 177.207031 160.84375 C 176.648438 160.730469 176.105469 160.566406 175.578125 160.347656 C 175.054688 160.132812 174.554688 159.863281 174.082031 159.546875 C 173.609375 159.230469 173.167969 158.871094 172.765625 158.46875 C 172.363281 158.066406 172.003906 157.628906 171.6875 157.15625 C 171.371094 156.683594 171.105469 156.183594 170.886719 155.65625 C 170.667969 155.132812 170.503906 154.589844 170.394531 154.03125 C 170.28125 153.472656 170.226562 152.90625 170.226562 152.339844 C 170.226562 151.769531 170.28125 151.207031 170.394531 150.648438 C 170.503906 150.089844 170.667969 149.546875 170.886719 149.019531 C 171.105469 148.496094 171.371094 147.996094 171.6875 147.523438 C 172.003906 147.046875 172.363281 146.609375 172.765625 146.207031 C 173.167969 145.804688 173.609375 145.445312 174.082031 145.128906 C 174.554688 144.8125 175.054688 144.546875 175.578125 144.328125 C 176.105469 144.109375 176.648438 143.945312 177.207031 143.835938 C 177.765625 143.722656 178.328125 143.667969 178.898438 143.667969 C 179.46875 143.667969 180.03125 143.722656 180.589844 143.835938 C 181.148438 143.945312 181.691406 144.109375 182.214844 144.328125 C 182.742188 144.546875 183.242188 144.8125 183.714844 145.128906 C 184.1875 145.445312 184.625 145.804688 185.027344 146.207031 C 185.429688 146.609375 185.789062 147.046875 186.105469 147.523438 C 186.421875 147.996094 186.691406 148.496094 186.910156 149.019531 C 187.125 149.546875 187.289062 150.089844 187.402344 150.648438 C 187.511719 151.207031 187.570312 151.769531 187.570312 152.339844 C 187.570312 152.90625 187.511719 153.472656 187.402344 154.03125 C 187.289062 154.589844 187.125 155.132812 186.910156 155.65625 C 186.691406 156.183594 186.421875 156.683594 186.105469 157.15625 C 185.789062 157.628906 185.429688 158.066406 185.027344 158.46875 C 184.625 158.871094 184.1875 159.230469 183.714844 159.546875 C 183.242188 159.863281 182.742188 160.132812 182.214844 160.347656 C 181.691406 160.566406 181.148438 160.730469 180.589844 160.84375 C 180.03125 160.953125 179.46875 161.007812 178.898438 161.007812 Z M 112.425781 152.339844 C 112.425781 151.769531 112.480469 151.207031 112.589844 150.648438 C 112.703125 150.089844 112.867188 149.546875 113.085938 149.019531 C 113.304688 148.496094 113.570312 147.996094 113.886719 147.523438 C 114.203125 147.046875 114.5625 146.609375 114.964844 146.207031 C 115.367188 145.804688 115.804688 145.445312 116.277344 145.128906 C 116.75 144.8125 117.25 144.546875 117.777344 144.328125 C 118.304688 144.109375 118.84375 143.945312 119.402344 143.835938 C 119.960938 143.722656 120.527344 143.667969 121.09375 143.667969 C 121.664062 143.667969 122.226562 143.722656 122.785156 143.835938 C 123.34375 143.945312 123.886719 144.109375 124.414062 144.328125 C 124.9375 144.546875 125.4375 144.8125 125.914062 145.128906 C 126.386719 145.445312 126.824219 145.804688 127.226562 146.207031 C 127.628906 146.609375 127.988281 147.046875 128.304688 147.523438 C 128.621094 147.996094 128.886719 148.496094 129.105469 149.019531 C 129.324219 149.546875 129.488281 150.089844 129.597656 150.648438 C 129.710938 151.207031 129.765625 151.769531 129.765625 152.339844 C 129.765625 152.90625 129.710938 153.472656 129.597656 154.03125 C 129.488281 154.589844 129.324219 155.132812 129.105469 155.65625 C 128.886719 156.183594 128.621094 156.683594 128.304688 157.15625 C 127.988281 157.628906 127.628906 158.066406 127.226562 158.46875 C 126.824219 158.871094 126.386719 159.230469 125.914062 159.546875 C 125.4375 159.863281 124.9375 160.132812 124.414062 160.347656 C 123.886719 160.566406 123.34375 160.730469 122.785156 160.84375 C 122.226562 160.953125 121.664062 161.007812 121.09375 161.007812 C 120.527344 161.007812 119.960938 160.953125 119.402344 160.84375 C 118.84375 160.730469 118.304688 160.566406 117.777344 160.347656 C 117.25 160.132812 116.75 159.863281 116.277344 159.546875 C 115.804688 159.230469 115.367188 158.871094 114.964844 158.46875 C 114.5625 158.066406 114.203125 157.628906 113.886719 157.15625 C 113.570312 156.683594 113.304688 156.183594 113.085938 155.65625 C 112.867188 155.132812 112.703125 154.589844 112.589844 154.03125 C 112.480469 153.472656 112.425781 152.90625 112.425781 152.339844 Z M 161.375 94.355469 C 163.074219 92.65625 165.820312 92.65625 167.5 94.355469 C 169.179688 96.054688 169.199219 98.800781 167.5 100.480469 L 160.457031 107.523438 L 190.457031 107.542969 C 192.859375 107.542969 194.792969 109.472656 194.792969 111.875 C 194.792969 114.28125 192.859375 116.210938 190.457031 116.210938 L 160.457031 116.210938 L 167.5 123.257812 C 169.199219 124.953125 169.199219 127.699219 167.5 129.378906 C 165.800781 131.058594 163.054688 131.078125 161.375 129.378906 L 146.925781 114.929688 C 145.226562 113.230469 145.226562 110.484375 146.925781 108.804688 Z M 161.375 94.355469 " fill-opacity="1" fill-rule="nonzero"/></g></svg>