<svg xmlns="http://www.w3.org/2000/svg" xmlns:xlink="http://www.w3.org/1999/xlink" width="400" zoomAndPan="magnify" viewBox="0 0 300 225" height="300" preserveAspectRatio="xMidYMid meet" version="1.0"><defs><clipPath id="a9dd27fd96"><path d="M 10 17 L 292 17 L 292 202 L 10 202 Z M 10 17 " clip-rule="nonzero"/></clipPath><clipPath id="b0d214ad3c"><path d="M -15.695312 9.367188 L 330.804688 9.996094 L 330.429688 215.496094 L -16.066406 214.863281 Z M -15.695312 9.367188 " clip-rule="nonzero"/></clipPath><clipPath id="0bf8642745"><path d="M -167.308594 -121.277344 L 488.941406 -120.082031 L 487.746094 536.164062 L -168.5 534.972656 Z M -167.308594 -121.277344 " clip-rule="nonzero"/></clipPath><clipPath id="7a855c870d"><path d="M 87.46875 69.773438 L 215.519531 69.773438 L 215.519531 172.523438 L 87.46875 172.523438 Z M 87.46875 69.773438 " clip-rule="nonzero"/></clipPath></defs><g clip-path="url(#a9dd27fd96)"><g clip-path="url(#b0d214ad3c)"><g clip-path="url(#0bf8642745)"><path fill="#239bea" d="M 172.875 17.886719 C 158.0625 19.464844 144.398438 25.144531 131.300781 35.125 L 124.558594 40.304688 L 122.378906 39.273438 C 119.242188 37.792969 110.785156 34.574219 107.453125 33.667969 C 103.414062 32.507812 88.285156 32.480469 83.089844 33.625 C 73.789062 35.660156 65.640625 40.195312 59.28125 46.851562 C 54.65625 51.78125 51.957031 55.75 50.214844 60.300781 C 49.1875 62.925781 48.285156 64.269531 46.9375 64.972656 C 37.441406 70.085938 27.230469 79.105469 21.957031 87.113281 C 12.636719 101.328125 10.054688 111.195312 10.660156 130.6875 C 11.019531 143.703125 11.65625 146.203125 16.832031 156.855469 C 24.6875 173.027344 36.589844 185.164062 52.410156 193.144531 C 60.03125 197.003906 64.902344 198.550781 73.554688 199.980469 C 79.195312 200.886719 89.324219 201.03125 152.089844 201.210938 C 230.882812 201.484375 226.84375 201.605469 239.03125 197.714844 C 246.152344 195.484375 256.484375 190.246094 262.261719 185.960938 C 271.765625 178.988281 281.917969 165.992188 285.71875 156 C 290.097656 144.59375 291.917969 131.902344 290.785156 120.554688 C 289.964844 111.898438 288.820312 107.34375 285.882812 100.542969 C 279.4375 85.464844 269.070312 74.035156 255.9375 67.597656 C 252.414062 65.859375 252.222656 65.667969 251.203125 61.949219 C 249.101562 54.378906 238.933594 41.28125 230.035156 34.726562 C 215.050781 23.542969 201.085938 18.195312 185.699219 17.589844 C 181.660156 17.390625 175.890625 17.574219 172.875 17.886719 Z M 188.746094 33.496094 C 194.261719 34.019531 206.816406 38.273438 212.390625 41.488281 C 226.09375 49.527344 233.578125 58.773438 238.425781 73.59375 C 239.957031 78.148438 240.402344 78.917969 241.878906 79.242188 C 246.875 80.402344 248.414062 80.921875 251.296875 82.785156 C 268.328125 93.652344 277.398438 113.734375 274.601562 134.695312 C 272.519531 150.460938 263.003906 166.535156 250.808594 174.847656 C 246.507812 177.726562 238.292969 181.75 232.519531 183.664062 L 227.386719 185.382812 L 152.054688 185.375 L 76.722656 185.429688 L 70.699219 183.945312 C 57.433594 180.585938 46.675781 173.324219 37.976562 161.765625 C 33.117188 155.28125 30.050781 148.800781 28.078125 140.914062 C 26.742188 135.71875 26.488281 133.214844 26.566406 125.652344 C 26.664062 108.40625 28.984375 101.804688 39.328125 89.835938 C 43.503906 84.972656 47.226562 82.222656 53.515625 79.347656 C 63.523438 74.8125 62.753906 75.453125 63.273438 71.351562 C 64.902344 58.789062 77.484375 48.875 93 48.003906 C 103.261719 47.445312 111.398438 50.34375 120.679688 57.863281 C 123.433594 60.113281 125.992188 61.914062 126.3125 61.976562 C 126.699219 61.976562 128.242188 60.3125 129.847656 58.328125 C 137.300781 48.980469 144.683594 43.160156 154.566406 38.628906 C 162.652344 34.988281 175.734375 32.382812 182.785156 33.035156 C 183.875 33.101562 186.503906 33.363281 188.746094 33.496094 Z M 188.746094 33.496094 " fill-opacity="1" fill-rule="nonzero"/></g></g></g><g clip-path="url(#7a855c870d)"><path fill="#239bea" d="M 193.113281 69.777344 C 198.414062 69.777344 202.714844 74.078125 202.714844 79.378906 L 202.714844 88.984375 L 212.320312 88.984375 C 214.078125 88.984375 215.519531 90.425781 215.519531 92.183594 C 215.519531 93.945312 214.078125 95.386719 212.320312 95.386719 L 161.097656 95.386719 C 159.339844 95.386719 157.898438 96.828125 157.898438 98.589844 C 157.898438 100.347656 159.339844 101.789062 161.097656 101.789062 L 205.917969 101.789062 C 207.675781 101.789062 209.117188 103.230469 209.117188 104.992188 C 209.117188 106.75 207.675781 108.191406 205.917969 108.191406 L 167.5 108.191406 C 165.742188 108.191406 164.300781 109.632812 164.300781 111.394531 C 164.300781 113.152344 165.742188 114.59375 167.5 114.59375 L 212.320312 114.59375 C 214.078125 114.59375 215.519531 116.035156 215.519531 117.796875 C 215.519531 119.554688 214.078125 120.996094 212.320312 120.996094 L 173.902344 120.996094 C 172.144531 120.996094 170.703125 122.4375 170.703125 124.199219 C 170.703125 125.957031 172.144531 127.398438 173.902344 127.398438 L 202.714844 127.398438 L 202.714844 153.007812 C 202.714844 163.613281 194.113281 172.21875 183.507812 172.21875 C 172.902344 172.21875 164.300781 163.613281 164.300781 153.007812 L 138.691406 153.007812 C 138.691406 163.613281 130.085938 172.21875 119.484375 172.21875 C 108.878906 172.21875 100.273438 163.613281 100.273438 153.007812 L 93.871094 153.007812 C 90.332031 153.007812 87.46875 150.148438 87.46875 146.605469 C 87.46875 143.066406 90.332031 140.203125 93.871094 140.203125 L 93.871094 117.253906 C 93.871094 113.855469 95.214844 110.59375 97.613281 108.191406 L 113.078125 92.726562 C 115.480469 90.324219 118.742188 88.984375 122.144531 88.984375 L 132.289062 88.984375 L 132.289062 79.378906 C 132.289062 74.078125 136.589844 69.777344 141.890625 69.777344 Z M 106.675781 117.253906 L 106.675781 120.996094 L 132.289062 120.996094 L 132.289062 101.789062 L 122.144531 101.789062 Z M 183.507812 143.40625 C 182.878906 143.40625 182.253906 143.46875 181.632812 143.589844 C 181.015625 143.714844 180.414062 143.894531 179.832031 144.136719 C 179.25 144.378906 178.695312 144.675781 178.171875 145.023438 C 177.648438 145.375 177.164062 145.773438 176.71875 146.21875 C 176.269531 146.664062 175.871094 147.148438 175.523438 147.675781 C 175.171875 148.199219 174.875 148.75 174.636719 149.335938 C 174.394531 149.917969 174.210938 150.515625 174.089844 151.136719 C 173.964844 151.753906 173.902344 152.378906 173.902344 153.007812 C 173.902344 153.640625 173.964844 154.265625 174.089844 154.882812 C 174.210938 155.5 174.394531 156.101562 174.636719 156.683594 C 174.875 157.265625 175.171875 157.820312 175.523438 158.34375 C 175.871094 158.871094 176.269531 159.355469 176.71875 159.800781 C 177.164062 160.246094 177.648438 160.644531 178.171875 160.996094 C 178.695312 161.34375 179.25 161.640625 179.832031 161.882812 C 180.414062 162.125 181.015625 162.304688 181.632812 162.429688 C 182.253906 162.550781 182.878906 162.613281 183.507812 162.613281 C 184.136719 162.613281 184.761719 162.550781 185.382812 162.429688 C 186 162.304688 186.601562 162.125 187.183594 161.882812 C 187.765625 161.640625 188.320312 161.34375 188.84375 160.996094 C 189.367188 160.644531 189.851562 160.246094 190.300781 159.800781 C 190.746094 159.355469 191.144531 158.871094 191.492188 158.34375 C 191.84375 157.820312 192.140625 157.265625 192.378906 156.683594 C 192.621094 156.101562 192.804688 155.5 192.925781 154.882812 C 193.050781 154.265625 193.113281 153.640625 193.113281 153.007812 C 193.113281 152.378906 193.050781 151.753906 192.925781 151.136719 C 192.804688 150.515625 192.621094 149.917969 192.378906 149.335938 C 192.140625 148.75 191.84375 148.199219 191.492188 147.675781 C 191.144531 147.148438 190.746094 146.664062 190.300781 146.21875 C 189.851562 145.773438 189.367188 145.375 188.84375 145.023438 C 188.320312 144.675781 187.765625 144.378906 187.183594 144.136719 C 186.601562 143.894531 186 143.714844 185.382812 143.589844 C 184.761719 143.46875 184.136719 143.40625 183.507812 143.40625 Z M 129.085938 153.007812 C 129.085938 152.378906 129.023438 151.753906 128.902344 151.136719 C 128.777344 150.515625 128.597656 149.917969 128.355469 149.335938 C 128.113281 148.75 127.816406 148.199219 127.46875 147.675781 C 127.117188 147.148438 126.71875 146.664062 126.273438 146.21875 C 125.828125 145.773438 125.34375 145.375 124.816406 145.023438 C 124.292969 144.675781 123.742188 144.378906 123.15625 144.136719 C 122.574219 143.894531 121.976562 143.714844 121.355469 143.589844 C 120.738281 143.46875 120.113281 143.40625 119.484375 143.40625 C 118.851562 143.40625 118.226562 143.46875 117.609375 143.589844 C 116.992188 143.714844 116.390625 143.894531 115.808594 144.136719 C 115.226562 144.378906 114.671875 144.675781 114.148438 145.023438 C 113.621094 145.375 113.136719 145.773438 112.691406 146.21875 C 112.246094 146.664062 111.847656 147.148438 111.496094 147.675781 C 111.148438 148.199219 110.851562 148.75 110.609375 149.335938 C 110.367188 149.917969 110.1875 150.515625 110.0625 151.136719 C 109.941406 151.753906 109.878906 152.378906 109.878906 153.007812 C 109.878906 153.640625 109.941406 154.265625 110.0625 154.882812 C 110.1875 155.5 110.367188 156.101562 110.609375 156.683594 C 110.851562 157.265625 111.148438 157.820312 111.496094 158.34375 C 111.847656 158.871094 112.246094 159.355469 112.691406 159.800781 C 113.136719 160.246094 113.621094 160.644531 114.148438 160.996094 C 114.671875 161.34375 115.226562 161.640625 115.808594 161.882812 C 116.390625 162.125 116.992188 162.304688 117.609375 162.429688 C 118.226562 162.550781 118.851562 162.613281 119.484375 162.613281 C 120.113281 162.613281 120.738281 162.550781 121.355469 162.429688 C 121.976562 162.304688 122.574219 162.125 123.15625 161.882812 C 123.742188 161.640625 124.292969 161.34375 124.816406 160.996094 C 125.34375 160.644531 125.828125 160.246094 126.273438 159.800781 C 126.71875 159.355469 127.117188 158.871094 127.46875 158.34375 C 127.816406 157.820312 128.113281 157.265625 128.355469 156.683594 C 128.597656 156.101562 128.777344 155.5 128.902344 154.882812 C 129.023438 154.265625 129.085938 153.640625 129.085938 153.007812 Z M 129.085938 153.007812 " fill-opacity="1" fill-rule="nonzero"/></g></svg>