<svg xmlns="http://www.w3.org/2000/svg" xmlns:xlink="http://www.w3.org/1999/xlink" width="500" zoomAndPan="magnify" viewBox="0 0 375 299.999988" height="400" preserveAspectRatio="xMidYMid meet" version="1.0"><defs><clipPath id="e5e7cf5f24"><path d="M 161.460938 89.796875 L 257.757812 89.796875 L 257.757812 137.945312 L 161.460938 137.945312 Z M 161.460938 89.796875 " clip-rule="nonzero"/></clipPath><clipPath id="cf35a232ab"><path d="M 161.460938 110.046875 L 161.460938 117.410156 C 161.460938 122.78125 163.59375 127.929688 167.394531 131.726562 C 171.191406 135.527344 176.339844 137.660156 181.710938 137.660156 L 236.9375 137.660156 C 242.308594 137.660156 247.460938 135.527344 251.257812 131.726562 C 255.054688 127.929688 257.1875 122.78125 257.1875 117.410156 L 257.1875 110.046875 C 257.1875 104.675781 255.054688 99.523438 251.257812 95.726562 C 247.460938 91.929688 242.308594 89.796875 236.9375 89.796875 L 181.710938 89.796875 C 176.339844 89.796875 171.191406 91.929688 167.394531 95.726562 C 163.59375 99.523438 161.460938 104.675781 161.460938 110.046875 Z M 161.460938 110.046875 " clip-rule="nonzero"/></clipPath><clipPath id="6f394d77aa"><path d="M 161.460938 90 L 257 90 L 257 136 L 161.460938 136 Z M 161.460938 90 " clip-rule="nonzero"/></clipPath><clipPath id="66ae4caae9"><path d="M 161.460938 110.046875 L 161.460938 117.410156 C 161.460938 122.78125 163.59375 127.929688 167.394531 131.726562 C 171.191406 135.527344 176.339844 137.660156 181.710938 137.660156 L 236.9375 137.660156 C 242.308594 137.660156 247.460938 135.527344 251.257812 131.726562 C 255.054688 127.929688 257.1875 122.78125 257.1875 117.410156 L 257.1875 110.046875 C 257.1875 104.675781 255.054688 99.523438 251.257812 95.726562 C 247.460938 91.929688 242.308594 89.796875 236.9375 89.796875 L 181.710938 89.796875 C 176.339844 89.796875 171.191406 91.929688 167.394531 95.726562 C 163.59375 99.523438 161.460938 104.675781 161.460938 110.046875 Z M 161.460938 110.046875 " clip-rule="nonzero"/></clipPath></defs><path fill="#231f20" d="M 207.597656 298.050781 L 122.316406 298.050781 L 2.929688 226.242188 L 92.390625 178.710938 Z M 207.597656 298.050781 " fill-opacity="0.2" fill-rule="nonzero"/><path fill="#947455" d="M 92.390625 117.359375 L 92.390625 224.21875 L 207.597656 298.050781 L 207.597656 187.945312 Z M 92.390625 117.359375 " fill-opacity="1" fill-rule="nonzero"/><path fill="#ffffff" d="M 92.390625 117.359375 L 203.410156 195.199219 L 207.597656 298.050781 L 207.597656 187.945312 Z M 92.390625 117.359375 " fill-opacity="0.22" fill-rule="nonzero"/><path fill="#231f20" d="M 92.390625 117.359375 L 92.390625 143.136719 L 207.597656 216.96875 L 207.597656 187.945312 Z M 92.390625 117.359375 " fill-opacity="0.2" fill-rule="nonzero"/><path fill="#b39069" d="M 207.597656 298.050781 L 207.597656 187.945312 L 328.257812 114.113281 L 328.257812 224.21875 Z M 207.597656 298.050781 " fill-opacity="1" fill-rule="nonzero"/><path fill="#231f20" d="M 207.597656 216.96875 L 207.597656 187.945312 L 328.257812 114.113281 L 328.257812 143.136719 Z M 207.597656 216.96875 " fill-opacity="0.2" fill-rule="nonzero"/><path fill="#ffffff" d="M 207.597656 298.050781 L 207.597656 187.945312 L 328.257812 114.113281 L 214.269531 195.199219 Z M 207.597656 298.050781 " fill-opacity="0.22" fill-rule="nonzero"/><path fill="#b5926b" d="M 207.597656 187.945312 L 92.390625 117.359375 L 210.324219 46.96875 Z M 207.597656 187.945312 " fill-opacity="1" fill-rule="nonzero"/><path fill="#dab78d" d="M 92.390625 117.359375 L 51.679688 72.394531 L 169.613281 2.007812 L 210.933594 46.746094 Z M 92.390625 117.359375 " fill-opacity="1" fill-rule="nonzero"/><path fill="#dab78d" d="M 92.390625 117.359375 L 51.679688 162.324219 L 163.738281 235.242188 L 207.597656 188.070312 Z M 92.390625 117.359375 " fill-opacity="1" fill-rule="nonzero"/><path fill="#dab78d" d="M 251.644531 2.007812 L 210.933594 46.96875 L 328.257812 114.113281 L 372.117188 66.941406 Z M 251.644531 2.007812 " fill-opacity="1" fill-rule="nonzero"/><path fill="#dab78d" d="M 254.09375 196.882812 L 207.597656 188.078125 L 328.257812 114.113281 L 372.117188 121.464844 Z M 254.09375 196.882812 " fill-opacity="1" fill-rule="nonzero"/><path fill="#967657" d="M 207.597656 187.945312 L 210.324219 46.96875 L 328.257812 114.113281 Z M 207.597656 187.945312 " fill-opacity="1" fill-rule="nonzero"/><path fill="#443320" d="M 189.855469 271.816406 L 190.226562 272.269531 L 190.238281 271.855469 C 190.269531 270.714844 190.472656 269.789062 190.855469 269.015625 C 191.195312 268.335938 191.570312 267.898438 192.035156 267.644531 C 192.222656 267.546875 192.421875 267.472656 192.636719 267.425781 L 193.234375 267.304688 L 192.449219 266.875 C 192.230469 266.753906 192.003906 266.644531 191.78125 266.546875 C 188.792969 265.246094 186.402344 266.535156 186.457031 269.417969 L 186.460938 269.847656 L 186.835938 269.867188 C 188 269.929688 188.675781 270.367188 189.855469 271.816406 Z M 189.855469 271.816406 " fill-opacity="1" fill-rule="nonzero"/><path fill="#443320" d="M 195.15625 268.609375 L 194.488281 268.144531 L 194.960938 268.910156 C 196.355469 271.148438 197.054688 273.355469 197.230469 276.0625 L 197.261719 276.523438 L 197.625 276.5 C 198.601562 276.4375 199.503906 277.007812 200.472656 278.292969 L 200.871094 278.824219 L 200.867188 278.34375 C 200.855469 275.265625 198.1875 270.71875 195.15625 268.609375 Z M 195.15625 268.609375 " fill-opacity="1" fill-rule="nonzero"/><path fill="#443320" d="M 196.808594 276.195312 L 196.839844 275.878906 C 196.914062 275.0625 196.59375 273.246094 196.125 271.824219 C 195.976562 271.375 195.789062 270.851562 195.542969 270.296875 C 195.292969 269.738281 194.984375 269.148438 194.585938 268.558594 C 194.25 268.0625 193.929688 267.730469 193.605469 267.554688 C 193.335938 267.402344 193.070312 267.359375 192.785156 267.414062 C 192.6875 267.4375 192.585938 267.46875 192.484375 267.511719 C 192.378906 267.558594 192.273438 267.617188 192.160156 267.695312 C 191.738281 267.972656 191.40625 268.390625 191.109375 269.015625 C 190.742188 269.773438 190.546875 270.703125 190.511719 271.847656 L 190.5 272.226562 L 190.863281 272.304688 C 191.4375 272.425781 192.015625 272.621094 192.589844 272.886719 C 192.933594 273.046875 193.28125 273.238281 193.628906 273.457031 C 194.574219 274.042969 195.535156 274.855469 196.488281 275.859375 Z M 196.808594 276.195312 " fill-opacity="1" fill-rule="nonzero"/><path fill="#443320" d="M 193.796875 273.914062 L 193.707031 273.855469 C 193.207031 273.539062 192.898438 273.710938 192.898438 274.304688 L 192.898438 281.335938 C 192.914062 281.535156 192.828125 281.585938 192.636719 281.488281 C 192.433594 281.382812 192.1875 281.128906 192.15625 280.902344 C 192.140625 280.8125 192.128906 280.746094 192.113281 280.675781 C 192.082031 280.515625 192.050781 280.359375 192.039062 279.929688 C 192.015625 279.34375 191.648438 278.707031 191.144531 278.390625 C 190.882812 278.222656 190.636719 278.167969 190.453125 278.234375 C 190.269531 278.296875 190.167969 278.476562 190.167969 278.734375 L 190.171875 279.40625 C 190.167969 279.425781 190.164062 279.453125 190.167969 279.492188 C 190.257812 281.066406 191.132812 282.417969 192.765625 283.511719 C 192.808594 283.539062 192.851562 283.566406 192.894531 283.59375 C 193.53125 284 194.019531 284.132812 194.347656 283.996094 C 194.789062 283.816406 194.785156 283.210938 194.777344 283.0625 L 194.777344 275.5 C 194.777344 274.964844 194.339844 274.253906 193.796875 273.914062 Z M 193.796875 273.914062 " fill-opacity="1" fill-rule="nonzero"/><path fill="#443320" d="M 195.304688 267.707031 C 195.394531 267.828125 195.484375 267.945312 195.566406 268.042969 C 195.734375 268.234375 195.882812 268.359375 196.003906 268.4375 C 196.15625 268.535156 196.273438 268.558594 196.355469 268.558594 C 196.9375 268.550781 196.855469 267.195312 196.835938 266.921875 L 196.78125 266.25 L 196.386719 266.507812 C 195.992188 266.765625 195.640625 266.59375 195.628906 266.589844 L 195.574219 266.566406 C 195.554688 266.558594 195.539062 266.554688 195.515625 266.550781 C 195.15625 266.460938 195.039062 266.601562 195.003906 266.738281 C 194.917969 267.0625 195.238281 267.601562 195.273438 267.664062 Z M 195.304688 267.707031 " fill-opacity="1" fill-rule="nonzero"/><path fill="#443320" d="M 200.050781 271.113281 L 199.976562 271.703125 C 199.921875 272.152344 199.714844 272.191406 199.714844 272.191406 L 199.667969 272.207031 C 199.660156 272.210938 199.652344 272.214844 199.640625 272.226562 C 199.4375 272.355469 199.449219 272.574219 199.492188 272.738281 C 199.601562 273.125 199.988281 273.476562 200.03125 273.515625 L 200.066406 273.546875 C 200.132812 273.59375 200.199219 273.640625 200.257812 273.679688 C 200.28125 273.695312 200.308594 273.707031 200.328125 273.722656 C 200.691406 273.933594 200.851562 273.859375 200.921875 273.761719 C 201.171875 273.402344 200.558594 272.128906 200.433594 271.875 Z M 200.050781 271.113281 " fill-opacity="1" fill-rule="nonzero"/><path fill="#443320" d="M 199.480469 268.082031 L 198.917969 268.054688 C 198.691406 268.039062 196.738281 267.96875 196.863281 269.097656 C 196.914062 269.566406 197.289062 270.128906 197.972656 270.769531 L 198.007812 270.800781 C 198.035156 270.820312 198.128906 270.894531 198.257812 270.976562 C 198.507812 271.136719 198.894531 271.328125 199.144531 271.210938 C 199.367188 271.101562 199.414062 270.769531 199.277344 270.222656 L 199.253906 270.15625 C 199.25 270.148438 198.957031 269.40625 199.285156 268.570312 Z M 199.480469 268.082031 " fill-opacity="1" fill-rule="nonzero"/><path fill="#443320" d="M 141.011719 250.695312 L 157.683594 261.265625 C 158.132812 261.550781 158.539062 261.585938 158.773438 261.363281 C 159.007812 261.136719 159.03125 260.695312 158.832031 260.175781 L 150.453125 238.308594 C 150.238281 237.746094 149.800781 237.199219 149.316406 236.890625 L 149.308594 236.882812 C 148.824219 236.578125 148.390625 236.5625 148.167969 236.84375 C 146.175781 239.386719 141.695312 245.601562 139.859375 248.15625 C 139.667969 248.425781 139.691406 248.898438 139.925781 249.414062 C 140.164062 249.933594 140.570312 250.414062 141.011719 250.695312 Z M 149.726562 245.066406 C 149.683594 244.375 149.855469 243.953125 150.238281 243.820312 C 150.390625 243.769531 150.558594 243.769531 150.714844 243.789062 C 150.421875 244.261719 150.566406 245.277344 151.148438 246.6875 C 152.589844 250.175781 152.023438 251.773438 151.8125 252.179688 L 151.414062 252.960938 L 152.222656 252.703125 C 152.5 252.617188 152.710938 252.414062 152.875 252.175781 C 152.867188 252.261719 152.863281 252.351562 152.855469 252.449219 C 152.773438 253.4375 151.9375 254.460938 150.582031 254.148438 C 151.0625 253.472656 151.179688 251.933594 150.574219 249.957031 L 150.015625 248.128906 L 150.089844 249.746094 C 150.203125 252.277344 148.839844 253.160156 147.515625 252.519531 C 146.75 252.152344 146.171875 251.339844 145.925781 250.292969 C 145.429688 248.171875 146.578125 246.898438 147.417969 245.964844 L 147.488281 245.886719 C 147.917969 245.410156 147.96875 244.894531 147.898438 244.46875 C 148 244.617188 148.085938 244.773438 148.152344 244.945312 C 148.503906 245.796875 148.347656 246.691406 148.039062 247.199219 C 147.863281 247.480469 147.78125 247.941406 148.070312 248.375 C 148.210938 248.582031 148.464844 248.835938 148.898438 248.855469 C 149.632812 248.890625 149.894531 247.683594 149.726562 245.066406 Z M 149.726562 245.066406 " fill-opacity="1" fill-rule="nonzero"/><path fill="#443320" d="M 178.042969 261.347656 L 178.042969 257.035156 C 178.042969 256.039062 177.6875 255.117188 176.964844 254.277344 C 174.320312 251.5 170.144531 249.175781 168.75 248.835938 C 167.609375 248.558594 167.394531 249.464844 167.4375 249.960938 L 167.46875 254.921875 C 167.46875 257.957031 170.589844 261.355469 171.367188 262.15625 L 171.367188 266.375 C 170.199219 265.824219 167.378906 264.597656 167.378906 265.636719 C 167.378906 265.84375 167.472656 266.09375 167.652344 266.386719 C 168.519531 267.785156 171.4375 269.988281 172.816406 270.863281 L 172.828125 270.871094 C 174.179688 271.722656 178.042969 273.800781 178.042969 272.195312 C 178.042969 270.910156 175.058594 268.765625 174 268.042969 L 174 263.804688 C 177.972656 265.519531 178.042969 261.390625 178.042969 261.347656 Z M 169.972656 252.675781 C 169.964844 252.667969 168.863281 251.8125 168.863281 251.109375 C 168.863281 250.730469 169.386719 250.417969 172.890625 252.546875 C 172.992188 252.609375 173.09375 252.671875 173.191406 252.734375 C 174.972656 253.863281 176.050781 254.960938 176.4375 255.578125 C 176.519531 255.707031 176.617188 255.886719 176.617188 256.007812 C 176.617188 256.023438 176.597656 256.058594 176.519531 256.082031 C 176 256.230469 173.855469 255.476562 171.339844 253.722656 L 171.171875 253.605469 L 169.898438 255.351562 L 170.21875 252.863281 Z M 169.972656 252.675781 " fill-opacity="1" fill-rule="nonzero"/><path fill="#443320" d="M 221.089844 52.351562 C 213.023438 53.222656 205.585938 56.332031 198.460938 61.777344 L 194.796875 64.605469 L 193.609375 64.046875 C 191.898438 63.242188 187.289062 61.496094 185.472656 61.007812 C 183.273438 60.378906 175.035156 60.378906 172.207031 61.007812 C 167.140625 62.125 162.707031 64.605469 159.25 68.238281 C 156.738281 70.925781 155.269531 73.089844 154.328125 75.570312 C 153.769531 77 153.28125 77.734375 152.546875 78.117188 C 147.378906 80.910156 141.828125 85.835938 138.964844 90.199219 C 133.902344 97.949219 132.503906 103.328125 132.855469 113.941406 C 133.0625 121.03125 133.414062 122.390625 136.242188 128.1875 C 140.535156 136.988281 147.03125 143.585938 155.65625 147.914062 C 159.808594 150.011719 162.464844 150.847656 167.175781 151.617188 C 170.25 152.105469 175.765625 152.175781 209.949219 152.210938 C 252.863281 152.28125 250.664062 152.351562 257.296875 150.21875 C 261.171875 149 266.792969 146.136719 269.9375 143.796875 C 275.105469 139.988281 280.621094 132.902344 282.679688 127.453125 C 285.054688 121.238281 286.03125 114.324219 285.402344 108.144531 C 284.949219 103.433594 284.320312 100.953125 282.714844 97.253906 C 279.1875 89.046875 273.53125 82.832031 266.375 79.339844 C 264.453125 78.398438 264.347656 78.292969 263.789062 76.265625 C 262.640625 72.148438 257.085938 65.023438 252.234375 61.460938 C 244.0625 55.386719 236.453125 52.488281 228.070312 52.175781 C 225.871094 52.070312 222.730469 52.175781 221.089844 52.351562 Z M 229.746094 60.835938 C 232.75 61.113281 239.59375 63.417969 242.632812 65.164062 C 250.105469 69.527344 254.1875 74.554688 256.84375 82.621094 C 257.679688 85.101562 257.925781 85.519531 258.726562 85.695312 C 261.453125 86.324219 262.289062 86.601562 263.859375 87.613281 C 273.148438 93.515625 278.105469 104.445312 276.605469 115.863281 C 275.488281 124.453125 270.320312 133.214844 263.6875 137.753906 C 261.347656 139.328125 256.878906 141.527344 253.734375 142.574219 L 250.941406 143.515625 L 209.914062 143.585938 L 168.886719 143.691406 L 165.605469 142.886719 C 158.378906 141.070312 152.511719 137.125 147.765625 130.839844 C 145.109375 127.316406 143.433594 123.789062 142.351562 119.492188 C 141.617188 116.664062 141.480469 115.304688 141.515625 111.183594 C 141.550781 101.792969 142.804688 98.195312 148.425781 91.664062 C 150.695312 89.011719 152.722656 87.511719 156.144531 85.9375 C 161.589844 83.460938 161.171875 83.808594 161.453125 81.574219 C 162.324219 74.730469 169.167969 69.320312 177.617188 68.832031 C 183.203125 68.515625 187.636719 70.085938 192.703125 74.171875 C 194.203125 75.394531 195.597656 76.371094 195.773438 76.40625 C 195.984375 76.40625 196.820312 75.5 197.695312 74.417969 C 201.746094 69.320312 205.761719 66.140625 211.136719 63.664062 C 215.535156 61.671875 222.660156 60.242188 226.5 60.589844 C 227.09375 60.625 228.527344 60.765625 229.746094 60.835938 Z M 229.746094 60.835938 " fill-opacity="1" fill-rule="nonzero"/><g clip-path="url(#e5e7cf5f24)"><g clip-path="url(#cf35a232ab)"><path fill="#443320" d="M 220.890625 58.339844 C 213.113281 59.300781 206.632812 61.960938 200.019531 66.980469 L 196.230469 69.835938 L 193.039062 68.507812 C 187.691406 66.347656 186.09375 66.015625 180.84375 66.015625 C 175.328125 66.050781 172.5 66.679688 168.28125 68.875 C 166.253906 69.9375 164.824219 71 162.695312 73.128906 C 160.238281 75.585938 159.574219 76.484375 158.277344 79.210938 C 157.046875 81.734375 156.480469 82.535156 155.652344 82.964844 C 154.023438 83.796875 150.5 86.320312 148.339844 88.214844 C 144.351562 91.671875 139.597656 99.316406 138.335938 104.234375 C 136.972656 109.652344 136.773438 119.425781 137.9375 124.144531 C 138.933594 128.199219 142.457031 134.710938 145.847656 138.765625 C 150.734375 144.582031 157.511719 149.203125 164.257812 151.328125 C 170.042969 153.15625 170.707031 153.191406 211.085938 153.257812 L 248.308594 153.289062 L 252.132812 152.292969 C 263.699219 149.300781 271.808594 143.585938 277.324219 134.578125 C 283.109375 125.140625 284.238281 111.414062 280.050781 101.378906 C 278.222656 96.925781 274.398438 91.308594 271.507812 88.75 C 269.347656 86.855469 266.390625 84.859375 264.261719 83.894531 C 262.535156 83.097656 262.46875 83 261.769531 80.839844 C 261.371094 79.609375 260.207031 77.347656 259.179688 75.785156 C 253.0625 66.613281 241.496094 59.566406 230.363281 58.207031 C 226.742188 57.773438 225.410156 57.773438 220.890625 58.339844 Z M 232.390625 66.8125 C 237.640625 68.042969 242.296875 70.269531 246.347656 73.492188 C 250.804688 77.015625 253.0625 80.574219 255.820312 88.214844 C 256.351562 89.644531 256.585938 89.84375 258.878906 90.375 C 262.234375 91.175781 266.789062 95.03125 269.980469 99.78125 C 273.601562 105.199219 275.03125 111.8125 274.101562 118.824219 C 273.601562 122.414062 272.835938 124.773438 270.878906 128.695312 C 267.15625 136.207031 261.304688 141.058594 252.296875 144.117188 L 249.640625 145.015625 L 209.757812 145.046875 L 169.875 145.046875 L 166.550781 143.953125 C 156.980469 140.792969 149.171875 132.683594 146.445312 123.113281 C 145.414062 119.589844 145.015625 114.304688 145.414062 110.515625 C 146.210938 103.636719 147.308594 101.113281 152.027344 95.527344 C 154.15625 93.035156 157.644531 90.644531 161.003906 89.378906 C 164.09375 88.214844 164.390625 87.949219 164.390625 86.386719 C 164.390625 85.691406 164.792969 84.09375 165.289062 82.867188 C 166.386719 80.105469 168.710938 77.714844 171.96875 76.019531 C 175.394531 74.226562 177.886719 73.691406 181.839844 73.890625 C 186.890625 74.15625 189.417969 75.1875 194.4375 79.078125 C 195.867188 80.207031 197.160156 81.105469 197.261719 81.105469 C 197.394531 81.105469 198.058594 80.339844 198.789062 79.375 C 201.25 76.183594 203.675781 73.824219 206.433594 71.964844 C 214.511719 66.546875 223.515625 64.753906 232.390625 66.8125 Z M 232.390625 66.8125 " fill-opacity="1" fill-rule="nonzero"/></g></g><g clip-path="url(#6f394d77aa)"><g clip-path="url(#66ae4caae9)"><path fill="#443320" d="M 179.082031 91.042969 C 174.164062 92.503906 169.210938 95.828125 166.550781 99.449219 C 164.523438 102.242188 162.398438 107.195312 162 110.117188 C 161.300781 115.003906 162.132812 119.65625 164.457031 124.078125 C 166.054688 127.066406 170.339844 131.320312 173.066406 132.585938 C 180.011719 135.84375 187.257812 135.777344 193.738281 132.386719 C 197.195312 130.558594 206.601562 121.652344 206.601562 120.1875 C 206.601562 119.523438 200.917969 113.875 200.617188 114.304688 C 196.828125 119.589844 192.34375 124.078125 189.152344 125.640625 C 186.957031 126.734375 186.625 126.800781 183.503906 126.800781 C 180.476562 126.800781 180.011719 126.703125 178.183594 125.804688 C 175.527344 124.441406 172.601562 121.683594 171.570312 119.558594 C 169.941406 116.066406 169.742188 112.808594 170.941406 108.023438 C 171.40625 106.261719 171.804688 105.566406 173.167969 104.101562 C 176.820312 100.214844 181.074219 98.617188 185.863281 99.351562 C 189.617188 99.914062 191.277344 100.914062 195.5 105.199219 C 197.496094 107.261719 199.953125 109.652344 200.917969 110.449219 C 203.109375 112.34375 207.363281 116.996094 209.957031 120.386719 C 211.652344 122.613281 218.265625 128.929688 221.855469 131.753906 C 223.78125 133.25 226.941406 134.546875 230.066406 135.109375 C 233.453125 135.710938 235.015625 135.742188 237.707031 135.242188 C 242.859375 134.347656 246.980469 132.417969 249.539062 129.660156 C 252.632812 126.402344 253.363281 125.273438 255.023438 121.519531 L 256.621094 117.828125 L 256.621094 113.011719 C 256.621094 108.457031 256.550781 108.058594 255.65625 105.863281 C 253.261719 100.046875 250.203125 96.292969 245.816406 93.832031 C 240.234375 90.710938 234.917969 89.746094 229.996094 91.007812 C 224.050781 92.535156 221.621094 93.933594 216.738281 98.652344 C 212.152344 103.105469 212.25 102.941406 213.8125 105.332031 C 214.511719 106.429688 215.375 107.824219 215.738281 108.421875 C 216.105469 109.023438 216.671875 109.554688 216.96875 109.621094 C 217.335938 109.6875 219.03125 108.324219 221.457031 106.03125 C 226.078125 101.644531 228.570312 99.914062 230.863281 99.417969 C 235.648438 98.386719 239.867188 99.550781 243.523438 102.941406 C 249.308594 108.324219 249.605469 117.132812 244.1875 123.046875 C 240.167969 127.433594 234.152344 128.628906 228.667969 126.171875 C 226.773438 125.308594 221.15625 119.722656 216.738281 114.339844 C 213.578125 110.515625 202.644531 99.617188 198.292969 95.992188 C 196.464844 94.464844 193.972656 92.769531 192.34375 91.972656 C 189.585938 90.609375 189.550781 90.609375 185.363281 90.507812 C 182.074219 90.441406 180.742188 90.542969 179.082031 91.042969 Z M 179.082031 91.042969 " fill-opacity="1" fill-rule="nonzero"/></g></g></svg>